ISO-10303-21;
HEADER;
FILE_DESCRIPTION (( 'STEP AP214' ),
    '1' );
FILE_NAME ('spacer.STEP',
    '2026-08-23T22:00:05',
    ( 'root' ),
    ( '' ),
    'SwSTEP 2.0',
    'SolidWorks 2023',
    '' );
FILE_SCHEMA (( 'AUTOMOTIVE_DESIGN' ));
ENDSEC;

DATA;
#1 = DIRECTION ( 'NONE',  ( 0.0000000000000000000, 0.0000000000000000000, 1.000000000000000000 ) ) ;
#2 = AXIS2_PLACEMENT_3D ( 'NONE', #161, #197, #299 ) ;
#3 = EDGE_LOOP ( 'NONE', ( #39, #37, #284, #316 ) ) ;
#4 = ORIENTED_EDGE ( 'NONE', *, *, #278, .T. ) ;
#5 = DIRECTION ( 'NONE',  ( 0.0000000000000000000, 0.0000000000000000000, 1.000000000000000000 ) ) ;
#6 = CARTESIAN_POINT ( 'NONE',  ( 18.00000000000000355, 8.500000000000000000, -12.25000000000000000 ) ) ;
#7 = LINE ( 'NONE', #356, #93 ) ;
#8 = LINE ( 'NONE', #227, #173 ) ;
#9 = VECTOR ( 'NONE', #323, 1000.000000000000000 ) ;
#10 = FACE_OUTER_BOUND ( 'NONE', #318, .T. ) ;
#11 = EDGE_CURVE ( 'NONE', #172, #111, #259, .T. ) ;
#12 = ORIENTED_EDGE ( 'NONE', *, *, #234, .T. ) ;
#13 = CARTESIAN_POINT ( 'NONE',  ( 19.00000000000000355, 0.0000000000000000000, -12.25000000000000000 ) ) ;
#14 = DIRECTION ( 'NONE',  ( -0.0000000000000000000, 1.000000000000000000, -0.0000000000000000000 ) ) ;
#15 = ADVANCED_FACE ( 'NONE', ( #156 ), #326, .T. ) ;
#16 = LINE ( 'NONE', #160, #87 ) ;
#17 = CARTESIAN_POINT ( 'NONE',  ( 0.0000000000000000000, 7.499999999999996447, 8.300000000000000711 ) ) ;
#18 = EDGE_LOOP ( 'NONE', ( #12, #68 ) ) ;
#19 = AXIS2_PLACEMENT_3D ( 'NONE', #307, #306, #302 ) ;
#20 = ORIENTED_EDGE ( 'NONE', *, *, #282, .T. ) ;
#21 = EDGE_CURVE ( 'NONE', #211, #324, #388, .T. ) ;
#22 = CARTESIAN_POINT ( 'NONE',  ( 19.00000000000000355, 0.0000000000000000000, -2.749999999999997335 ) ) ;
#23 = ORIENTED_EDGE ( 'NONE', *, *, #84, .F. ) ;
#24 = CARTESIAN_POINT ( 'NONE',  ( -3.999999999999996447, 0.0000000000000000000, -2.749999999999998224 ) ) ;
#25 = CYLINDRICAL_SURFACE ( 'NONE', #379, 14.99999999999999822 ) ;
#26 = ADVANCED_FACE ( 'NONE', ( #290 ), #262, .F. ) ;
#27 =( NAMED_UNIT ( * ) SI_UNIT ( $, .STERADIAN. ) SOLID_ANGLE_UNIT ( ) );
#28 = DIRECTION ( 'NONE',  ( 0.0000000000000000000, -1.000000000000000000, 0.0000000000000000000 ) ) ;
#29 = VERTEX_POINT ( 'NONE', #158 ) ;
#30 = COLOUR_RGB ( '',0.7921568627450980005, 0.8196078431372548767, 0.9333333333333333481 ) ;
#31 = ADVANCED_FACE ( 'NONE', ( #10 ), #294, .T. ) ;
#32 = FACE_OUTER_BOUND ( 'NONE', #3, .T. ) ;
#33 = CIRCLE ( 'NONE', #421, 9.300000000000009592 ) ;
#34 = EDGE_LOOP ( 'NONE', ( #254, #281, #369, #288, #184, #235, #351, #165 ) ) ;
#35 = DIRECTION ( 'NONE',  ( 0.0000000000000000000, -0.0000000000000000000, 1.000000000000000000 ) ) ;
#36 = EDGE_CURVE ( 'NONE', #324, #52, #232, .T. ) ;
#37 = ORIENTED_EDGE ( 'NONE', *, *, #66, .T. ) ;
#38 = CARTESIAN_POINT ( 'NONE',  ( -17.99999999999999645, 0.0000000000000000000, -11.25000000000000000 ) ) ;
#39 = ORIENTED_EDGE ( 'NONE', *, *, #59, .T. ) ;
#40 = DIRECTION ( 'NONE',  ( 1.000000000000000000, 0.0000000000000000000, 0.0000000000000000000 ) ) ;
#41 = VECTOR ( 'NONE', #47, 1000.000000000000000 ) ;
#42 = VECTOR ( 'NONE', #130, 1000.000000000000000 ) ;
#43 = ORIENTED_EDGE ( 'NONE', *, *, #332, .F. ) ;
#44 = CIRCLE ( 'NONE', #242, 8.300000000000000711 ) ;
#45 = DIRECTION ( 'NONE',  ( -0.0000000000000000000, 1.000000000000000000, -0.0000000000000000000 ) ) ;
#46 = DIRECTION ( 'NONE',  ( -0.0000000000000000000, 1.000000000000000000, -0.0000000000000000000 ) ) ;
#47 = DIRECTION ( 'NONE',  ( 0.0000000000000000000, 0.7071067811865456854, 0.7071067811865493491 ) ) ;
#48 = EDGE_CURVE ( 'NONE', #343, #104, #8, .T. ) ;
#49 = DIRECTION ( 'NONE',  ( 0.0000000000000000000, 1.000000000000000000, 0.0000000000000000000 ) ) ;
#50 = SURFACE_STYLE_FILL_AREA ( #82 ) ;
#51 = CIRCLE ( 'NONE', #333, 1.000000000000000888 ) ;
#52 = VERTEX_POINT ( 'NONE', #186 ) ;
#53 = CARTESIAN_POINT ( 'NONE',  ( 4.000000000000003553, 8.500000000000000000, 12.25000000000000178 ) ) ;
#54 = ORIENTED_EDGE ( 'NONE', *, *, #395, .T. ) ;
#55 = DIRECTION ( 'NONE',  ( 0.0000000000000000000, 1.000000000000000000, 0.0000000000000000000 ) ) ;
#56 = CARTESIAN_POINT ( 'NONE',  ( -18.99999999999999645, 8.500000000000000000, -11.25000000000000000 ) ) ;
#57 = DIRECTION ( 'NONE',  ( 0.0000000000000000000, 1.000000000000000000, 0.0000000000000000000 ) ) ;
#58 = CARTESIAN_POINT ( 'NONE',  ( 19.00000000000000355, 8.500000000000000000, -12.25000000000000000 ) ) ;
#59 = EDGE_CURVE ( 'NONE', #327, #353, #226, .T. ) ;
#60 = VECTOR ( 'NONE', #331, 1000.000000000000000 ) ;
#61 = AXIS2_PLACEMENT_3D ( 'NONE', #116, #260, #224 ) ;
#62 =( NAMED_UNIT ( * ) SI_UNIT ( $, .STERADIAN. ) SOLID_ANGLE_UNIT ( ) );
#63 = EDGE_CURVE ( 'NONE', #349, #303, #355, .T. ) ;
#64 = CARTESIAN_POINT ( 'NONE',  ( -18.99999999999999645, 8.500000000000000000, -12.25000000000000000 ) ) ;
#65 = VERTEX_POINT ( 'NONE', #53 ) ;
#66 = EDGE_CURVE ( 'NONE', #353, #65, #359, .T. ) ;
#67 = CARTESIAN_POINT ( 'NONE',  ( -18.99999999999999645, 8.500000000000000000, 12.25000000000000000 ) ) ;
#68 = ORIENTED_EDGE ( 'NONE', *, *, #389, .T. ) ;
#69 = DIRECTION ( 'NONE',  ( 4.565061778886334783E-17, 0.0000000000000000000, -1.000000000000000000 ) ) ;
#70 = CIRCLE ( 'NONE', #78, 1.000000000000000888 ) ;
#71 = ORIENTED_EDGE ( 'NONE', *, *, #21, .T. ) ;
#72 = FACE_OUTER_BOUND ( 'NONE', #271, .T. ) ;
#73 = EDGE_LOOP ( 'NONE', ( #414, #140, #269, #54 ) ) ;
#74 = DIRECTION ( 'NONE',  ( 0.0000000000000000000, 1.000000000000000000, 0.0000000000000000000 ) ) ;
#75 = EDGE_CURVE ( 'NONE', #157, #211, #425, .T. ) ;
#76 = ORIENTED_EDGE ( 'NONE', *, *, #395, .F. ) ;
#77 = DIRECTION ( 'NONE',  ( -0.0000000000000000000, -1.000000000000000000, -0.0000000000000000000 ) ) ;
#78 = AXIS2_PLACEMENT_3D ( 'NONE', #247, #139, #315 ) ;
#79 = FACE_OUTER_BOUND ( 'NONE', #279, .T. ) ;
#80 = LINE ( 'NONE', #123, #167 ) ;
#81 = CARTESIAN_POINT ( 'NONE',  ( 4.000000000000003553, 8.500000000000000000, -2.749999999999997335 ) ) ;
#82 = FILL_AREA_STYLE ('',( #391 ) ) ;
#83 = EDGE_CURVE ( 'NONE', #303, #337, #51, .T. ) ;
#84 = EDGE_CURVE ( 'NONE', #349, #29, #80, .T. ) ;
#85 = DIRECTION ( 'NONE',  ( 0.0000000000000000000, -1.000000000000000000, 0.0000000000000000000 ) ) ;
#86 = AXIS2_PLACEMENT_3D ( 'NONE', #230, #55, #121 ) ;
#87 = VECTOR ( 'NONE', #297, 1000.000000000000000 ) ;
#88 = VERTEX_POINT ( 'NONE', #225 ) ;
#89 = LINE ( 'NONE', #17, #41 ) ;
#90 = CARTESIAN_POINT ( 'NONE',  ( 19.00000000000000355, 8.500000000000000000, -12.25000000000000000 ) ) ;
#91 = CARTESIAN_POINT ( 'NONE',  ( 0.0000000000000000000, 7.499999999999996447, 0.0000000000000000000 ) ) ;
#92 = VECTOR ( 'NONE', #404, 1000.000000000000000 ) ;
#93 = VECTOR ( 'NONE', #46, 1000.000000000000000 ) ;
#94 = SHAPE_DEFINITION_REPRESENTATION ( #205, #189 ) ;
#95 = PLANE ( 'NONE',  #412 ) ;
#96 = EDGE_CURVE ( 'NONE', #115, #29, #357, .T. ) ;
#97 = DIRECTION ( 'NONE',  ( 0.0000000000000000000, 0.0000000000000000000, 1.000000000000000000 ) ) ;
#98 = PRODUCT_RELATED_PRODUCT_CATEGORY ( 'part', '', ( #106 ) ) ;
#99 = EDGE_CURVE ( 'NONE', #343, #88, #89, .T. ) ;
#100 = DIRECTION ( 'NONE',  ( 0.0000000000000000000, 0.0000000000000000000, 1.000000000000000000 ) ) ;
#101 = DIRECTION ( 'NONE',  ( 0.0000000000000000000, 0.0000000000000000000, -1.000000000000000000 ) ) ;
#102 = MANIFOLD_SOLID_BREP ( 'Chamfer1', #241 ) ;
#103 = DIRECTION ( 'NONE',  ( 0.0000000000000000000, 0.0000000000000000000, 1.000000000000000000 ) ) ;
#104 = VERTEX_POINT ( 'NONE', #199 ) ;
#105 = EDGE_CURVE ( 'NONE', #303, #115, #119, .T. ) ;
#106 = PRODUCT ( 'spacer', 'spacer', '', ( #409 ) ) ;
#107 = DIRECTION ( 'NONE',  ( 0.0000000000000000000, 0.0000000000000000000, 1.000000000000000000 ) ) ;
#108 = ORIENTED_EDGE ( 'NONE', *, *, #36, .T. ) ;
#109 = CIRCLE ( 'NONE', #285, 8.300000000000000711 ) ;
#110 = LINE ( 'NONE', #253, #325 ) ;
#111 = VERTEX_POINT ( 'NONE', #276 ) ;
#112 = CARTESIAN_POINT ( 'NONE',  ( 19.00000000000000355, 8.500000000000000000, -11.25000000000000000 ) ) ;
#113 = ORIENTED_EDGE ( 'NONE', *, *, #389, .F. ) ;
#114 = DIRECTION ( 'NONE',  ( 0.0000000000000000000, 0.0000000000000000000, 1.000000000000000000 ) ) ;
#115 = VERTEX_POINT ( 'NONE', #439 ) ;
#116 = CARTESIAN_POINT ( 'NONE',  ( 0.0000000000000000000, 8.500000000000000000, 0.0000000000000000000 ) ) ;
#117 = DIRECTION ( 'NONE',  ( -0.0000000000000000000, -1.000000000000000000, -0.0000000000000000000 ) ) ;
#118 = ADVANCED_FACE ( 'NONE', ( #164 ), #25, .T. ) ;
#119 = LINE ( 'NONE', #133, #403 ) ;
#120 = ADVANCED_FACE ( 'NONE', ( #368 ), #128, .F. ) ;
#121 = DIRECTION ( 'NONE',  ( 0.0000000000000000000, 0.0000000000000000000, 1.000000000000000000 ) ) ;
#122 = ORIENTED_EDGE ( 'NONE', *, *, #365, .T. ) ;
#123 = CARTESIAN_POINT ( 'NONE',  ( -18.99999999999999645, 8.500000000000000000, -12.25000000000000000 ) ) ;
#124 = AXIS2_PLACEMENT_3D ( 'NONE', #219, #183, #443 ) ;
#125 = ORIENTED_EDGE ( 'NONE', *, *, #344, .F. ) ;
#126 = DIRECTION ( 'NONE',  ( 0.0000000000000000000, 0.0000000000000000000, 1.000000000000000000 ) ) ;
#127 = ORIENTED_EDGE ( 'NONE', *, *, #354, .F. ) ;
#128 = PLANE ( 'NONE',  #131 ) ;
#129 = VERTEX_POINT ( 'NONE', #171 ) ;
#130 = DIRECTION ( 'NONE',  ( 0.0000000000000000000, 0.0000000000000000000, 1.000000000000000000 ) ) ;
#131 = AXIS2_PLACEMENT_3D ( 'NONE', #58, #270, #268 ) ;
#132 = CONICAL_SURFACE ( 'NONE', #222, 8.300000000000000711, 0.7853981633974509435 ) ;
#133 = CARTESIAN_POINT ( 'NONE',  ( -18.99999999999999645, 0.0000000000000000000, -12.25000000000000000 ) ) ;
#134 = CARTESIAN_POINT ( 'NONE',  ( 0.0000000000000000000, 0.0000000000000000000, 0.0000000000000000000 ) ) ;
#135 = CARTESIAN_POINT ( 'NONE',  ( -18.99999999999999645, 8.500000000000000000, -2.749999999999999112 ) ) ;
#136 = APPLICATION_PROTOCOL_DEFINITION ( 'draft international standard', 'automotive_design', 1998, #245 ) ;
#137 = STYLED_ITEM ( 'NONE', ( #366 ), #102 ) ;
#138 = CIRCLE ( 'NONE', #419, 1.000000000000000888 ) ;
#139 = DIRECTION ( 'NONE',  ( 0.0000000000000000000, 1.000000000000000000, 0.0000000000000000000 ) ) ;
#140 = ORIENTED_EDGE ( 'NONE', *, *, #417, .T. ) ;
#141 = CARTESIAN_POINT ( 'NONE',  ( 0.0000000000000000000, 7.499999999999996447, 0.0000000000000000000 ) ) ;
#142 = VERTEX_POINT ( 'NONE', #56 ) ;
#143 = DIRECTION ( 'NONE',  ( 0.0000000000000000000, 1.000000000000000000, 0.0000000000000000000 ) ) ;
#144 = ORIENTED_EDGE ( 'NONE', *, *, #84, .T. ) ;
#145 = MECHANICAL_DESIGN_GEOMETRIC_PRESENTATION_REPRESENTATION (  '', ( #137 ), #309 ) ;
#146 = AXIS2_PLACEMENT_3D ( 'NONE', #67, #69, #415 ) ;
#147 = LINE ( 'NONE', #342, #394 ) ;
#148 = CIRCLE ( 'NONE', #265, 15.00000000000000000 ) ;
#149 = EDGE_LOOP ( 'NONE', ( #246, #177, #23, #248 ) ) ;
#150 = PRODUCT_DEFINITION ( 'UNKNOWN', '', #258, #440 ) ;
#151 = VERTEX_POINT ( 'NONE', #22 ) ;
#152 = CARTESIAN_POINT ( 'NONE',  ( 18.00000000000000355, 0.0000000000000000000, -11.25000000000000000 ) ) ;
#153 = CIRCLE ( 'NONE', #438, 8.300000000000000711 ) ;
#154 = EDGE_CURVE ( 'NONE', #142, #324, #204, .T. ) ;
#155 = LINE ( 'NONE', #240, #221 ) ;
#156 = FACE_OUTER_BOUND ( 'NONE', #386, .T. ) ;
#157 = VERTEX_POINT ( 'NONE', #274 ) ;
#158 = CARTESIAN_POINT ( 'NONE',  ( -17.99999999999999645, 8.500000000000000000, -12.25000000000000000 ) ) ;
#159 = ADVANCED_FACE ( 'NONE', ( #206 ), #174, .F. ) ;
#160 = CARTESIAN_POINT ( 'NONE',  ( 0.0000000000000000000, 8.500000000000000000, -8.300000000000000711 ) ) ;
#161 = CARTESIAN_POINT ( 'NONE',  ( 18.00000000000000355, 8.500000000000000000, -11.25000000000000000 ) ) ;
#162 = AXIS2_PLACEMENT_3D ( 'NONE', #91, #57, #398 ) ;
#163 =( LENGTH_UNIT ( ) NAMED_UNIT ( * ) SI_UNIT ( .MILLI., .METRE. ) );
#164 = FACE_OUTER_BOUND ( 'NONE', #287, .T. ) ;
#165 = ORIENTED_EDGE ( 'NONE', *, *, #209, .T. ) ;
#166 = PLANE ( 'NONE',  #19 ) ;
#167 = VECTOR ( 'NONE', #266, 1000.000000000000000 ) ;
#168 = ADVANCED_FACE ( 'NONE', ( #341, #371 ), #166, .T. ) ;
#169 = AXIS2_PLACEMENT_3D ( 'NONE', #286, #28, #101 ) ;
#170 =( LENGTH_UNIT ( ) NAMED_UNIT ( * ) SI_UNIT ( .MILLI., .METRE. ) );
#171 = CARTESIAN_POINT ( 'NONE',  ( 19.00000000000000355, 8.500000000000000000, -2.749999999999997335 ) ) ;
#172 = VERTEX_POINT ( 'NONE', #272 ) ;
#173 = VECTOR ( 'NONE', #77, 1000.000000000000000 ) ;
#174 = CONICAL_SURFACE ( 'NONE', #162, 8.300000000000000711, 0.7853981633974509435 ) ;
#175 = CIRCLE ( 'NONE', #311, 8.300000000000000711 ) ;
#176 = DIRECTION ( 'NONE',  ( 0.0000000000000000000, 1.000000000000000000, 0.0000000000000000000 ) ) ;
#177 = ORIENTED_EDGE ( 'NONE', *, *, #96, .T. ) ;
#178 = CARTESIAN_POINT ( 'NONE',  ( 0.0000000000000000000, 8.500000000000000000, 0.0000000000000000000 ) ) ;
#179 = ORIENTED_EDGE ( 'NONE', *, *, #370, .T. ) ;
#180 = FACE_BOUND ( 'NONE', #18, .T. ) ;
#181 = EDGE_LOOP ( 'NONE', ( #144, #347, #429, #108, #179, #218, #384, #295 ) ) ;
#182 = EDGE_CURVE ( 'NONE', #129, #380, #339, .T. ) ;
#183 = DIRECTION ( 'NONE',  ( -0.0000000000000000000, -1.000000000000000000, -0.0000000000000000000 ) ) ;
#184 = ORIENTED_EDGE ( 'NONE', *, *, #430, .F. ) ;
#185 = APPLICATION_CONTEXT ( 'automotive_design' ) ;
#186 = CARTESIAN_POINT ( 'NONE',  ( -3.999999999999996447, 8.500000000000000000, 12.25000000000000000 ) ) ;
#187 = ADVANCED_FACE ( 'NONE', ( #407 ), #95, .F. ) ;
#188 = CARTESIAN_POINT ( 'NONE',  ( -17.99999999999999645, 8.500000000000000000, -11.25000000000000000 ) ) ;
#189 = ADVANCED_BREP_SHAPE_REPRESENTATION ( 'spacer', ( #102, #361 ), #292 ) ;
#190 = CIRCLE ( 'NONE', #346, 15.00000000000000000 ) ;
#191 = CIRCLE ( 'NONE', #298, 15.00000000000000000 ) ;
#192 = CARTESIAN_POINT ( 'NONE',  ( -18.99999999999999645, 0.0000000000000000000, 12.25000000000000000 ) ) ;
#193 = CARTESIAN_POINT ( 'NONE',  ( 4.000000000000003553, 0.0000000000000000000, -2.749999999999997335 ) ) ;
#194 = CARTESIAN_POINT ( 'NONE',  ( 4.000000000000003553, 8.500000000000000000, 12.25000000000000178 ) ) ;
#195 = ORIENTED_EDGE ( 'NONE', *, *, #99, .F. ) ;
#196 = DIRECTION ( 'NONE',  ( 0.0000000000000000000, 0.0000000000000000000, 1.000000000000000000 ) ) ;
#197 = DIRECTION ( 'NONE',  ( 0.0000000000000000000, -1.000000000000000000, 0.0000000000000000000 ) ) ;
#198 = ORIENTED_EDGE ( 'NONE', *, *, #338, .T. ) ;
#199 = CARTESIAN_POINT ( 'NONE',  ( 1.016456843292303031E-15, 0.0000000000000000000, 8.300000000000000711 ) ) ;
#200 = VECTOR ( 'NONE', #223, 1000.000000000000000 ) ;
#201 = ORIENTED_EDGE ( 'NONE', *, *, #154, .F. ) ;
#202 =( NAMED_UNIT ( * ) PLANE_ANGLE_UNIT ( ) SI_UNIT ( $, .RADIAN. ) );
#203 = ORIENTED_EDGE ( 'NONE', *, *, #99, .T. ) ;
#204 = LINE ( 'NONE', #400, #42 ) ;
#205 = PRODUCT_DEFINITION_SHAPE ( 'NONE', 'NONE',  #150 ) ;
#206 = FACE_OUTER_BOUND ( 'NONE', #437, .T. ) ;
#207 = CIRCLE ( 'NONE', #264, 1.000000000000000888 ) ;
#208 = SURFACE_SIDE_STYLE ('',( #50 ) ) ;
#209 = EDGE_CURVE ( 'NONE', #327, #211, #190, .T. ) ;
#210 = CARTESIAN_POINT ( 'NONE',  ( 1.016456843292303031E-15, 7.499999999999996447, 8.300000000000000711 ) ) ;
#211 = VERTEX_POINT ( 'NONE', #238 ) ;
#212 = UNCERTAINTY_MEASURE_WITH_UNIT (LENGTH_MEASURE( 1.000000000000000082E-05 ), #163, 'distance_accuracy_value', 'NONE');
#213 = FACE_OUTER_BOUND ( 'NONE', #256, .T. ) ;
#214 = ORIENTED_EDGE ( 'NONE', *, *, #11, .F. ) ;
#215 = CARTESIAN_POINT ( 'NONE',  ( 0.0000000000000000000, 0.0000000000000000000, -8.300000000000000711 ) ) ;
#216 = ORIENTED_EDGE ( 'NONE', *, *, #21, .F. ) ;
#217 = PLANE ( 'NONE',  #250 ) ;
#218 = ORIENTED_EDGE ( 'NONE', *, *, #432, .T. ) ;
#219 = CARTESIAN_POINT ( 'NONE',  ( 0.0000000000000000000, 8.500000000000000000, 0.0000000000000000000 ) ) ;
#220 = ORIENTED_EDGE ( 'NONE', *, *, #451, .F. ) ;
#221 = VECTOR ( 'NONE', #449, 1000.000000000000000 ) ;
#222 = AXIS2_PLACEMENT_3D ( 'NONE', #317, #422, #1 ) ;
#223 = DIRECTION ( 'NONE',  ( 1.000000000000000000, 0.0000000000000000000, 4.565061778886334783E-17 ) ) ;
#224 = DIRECTION ( 'NONE',  ( 0.0000000000000000000, 0.0000000000000000000, -1.000000000000000000 ) ) ;
#225 = CARTESIAN_POINT ( 'NONE',  ( 0.0000000000000000000, 8.500000000000000000, 9.300000000000009592 ) ) ;
#226 = LINE ( 'NONE', #192, #200 ) ;
#227 = CARTESIAN_POINT ( 'NONE',  ( 1.016456843292303031E-15, 8.500000000000000000, 8.300000000000000711 ) ) ;
#228 = ORIENTED_EDGE ( 'NONE', *, *, #338, .F. ) ;
#229 = DIRECTION ( 'NONE',  ( 0.0000000000000000000, 1.000000000000000000, 0.0000000000000000000 ) ) ;
#230 = CARTESIAN_POINT ( 'NONE',  ( -3.999999999999996447, 8.500000000000000000, -2.749999999999998224 ) ) ;
#231 = DIRECTION ( 'NONE',  ( -0.0000000000000000000, -1.000000000000000000, -0.0000000000000000000 ) ) ;
#232 = CIRCLE ( 'NONE', #86, 15.00000000000000000 ) ;
#233 = SURFACE_STYLE_USAGE ( .BOTH. , #208 ) ;
#234 = EDGE_CURVE ( 'NONE', #273, #104, #109, .T. ) ;
#235 = ORIENTED_EDGE ( 'NONE', *, *, #382, .T. ) ;
#236 = DIRECTION ( 'NONE',  ( 1.000000000000000000, 0.0000000000000000000, -0.0000000000000000000 ) ) ;
#237 = ORIENTED_EDGE ( 'NONE', *, *, #63, .F. ) ;
#238 = CARTESIAN_POINT ( 'NONE',  ( -18.99999999999999645, 0.0000000000000000000, -2.749999999999999112 ) ) ;
#239 = EDGE_CURVE ( 'NONE', #52, #327, #155, .T. ) ;
#240 = CARTESIAN_POINT ( 'NONE',  ( -3.999999999999996447, 8.500000000000000000, 12.25000000000000000 ) ) ;
#241 = CLOSED_SHELL ( 'NONE', ( #159, #26, #168, #305, #320, #251, #120, #187, #401, #118, #312, #31, #15, #373 ) ) ;
#242 = AXIS2_PLACEMENT_3D ( 'NONE', #428, #229, #5 ) ;
#243 = FACE_OUTER_BOUND ( 'NONE', #267, .T. ) ;
#244 = DIRECTION ( 'NONE',  ( 0.0000000000000000000, 0.0000000000000000000, -1.000000000000000000 ) ) ;
#245 = APPLICATION_CONTEXT ( 'automotive_design' ) ;
#246 = ORIENTED_EDGE ( 'NONE', *, *, #105, .T. ) ;
#247 = CARTESIAN_POINT ( 'NONE',  ( 18.00000000000000355, 8.500000000000000000, -11.25000000000000000 ) ) ;
#248 = ORIENTED_EDGE ( 'NONE', *, *, #63, .T. ) ;
#249 = AXIS2_PLACEMENT_3D ( 'NONE', #188, #85, #293 ) ;
#250 = AXIS2_PLACEMENT_3D ( 'NONE', #350, #74, #35 ) ;
#251 = ADVANCED_FACE ( 'NONE', ( #32 ), #352, .F. ) ;
#252 = EDGE_CURVE ( 'NONE', #29, #142, #138, .T. ) ;
#253 = CARTESIAN_POINT ( 'NONE',  ( -18.99999999999999645, 8.500000000000000000, 12.25000000000000000 ) ) ;
#254 = ORIENTED_EDGE ( 'NONE', *, *, #75, .F. ) ;
#255 = DIRECTION ( 'NONE',  ( 0.0000000000000000000, 0.0000000000000000000, 1.000000000000000000 ) ) ;
#256 = EDGE_LOOP ( 'NONE', ( #201, #4, #402, #71 ) ) ;
#257 = DIRECTION ( 'NONE',  ( 0.0000000000000000000, 0.0000000000000000000, -1.000000000000000000 ) ) ;
#258 = PRODUCT_DEFINITION_FORMATION_WITH_SPECIFIED_SOURCE ( 'ANY', '', #106, .NOT_KNOWN. ) ;
#259 = LINE ( 'NONE', #364, #9 ) ;
#260 = DIRECTION ( 'NONE',  ( -0.0000000000000000000, -1.000000000000000000, -0.0000000000000000000 ) ) ;
#261 = CARTESIAN_POINT ( 'NONE',  ( -18.99999999999999645, 8.500000000000000000, -2.749999999999999112 ) ) ;
#262 = CYLINDRICAL_SURFACE ( 'NONE', #319, 8.300000000000000711 ) ;
#263 = VECTOR ( 'NONE', #14, 1000.000000000000000 ) ;
#264 = AXIS2_PLACEMENT_3D ( 'NONE', #38, #376, #255 ) ;
#265 = AXIS2_PLACEMENT_3D ( 'NONE', #193, #322, #114 ) ;
#266 = DIRECTION ( 'NONE',  ( -1.000000000000000000, -0.0000000000000000000, -0.0000000000000000000 ) ) ;
#267 = EDGE_LOOP ( 'NONE', ( #423, #216, #448, #329 ) ) ;
#268 = DIRECTION ( 'NONE',  ( 0.0000000000000000000, 0.0000000000000000000, 1.000000000000000000 ) ) ;
#269 = ORIENTED_EDGE ( 'NONE', *, *, #182, .F. ) ;
#270 = DIRECTION ( 'NONE',  ( -1.000000000000000000, 0.0000000000000000000, 0.0000000000000000000 ) ) ;
#271 = EDGE_LOOP ( 'NONE', ( #214, #436, #203, #228 ) ) ;
#272 = CARTESIAN_POINT ( 'NONE',  ( 0.0000000000000000000, 7.499999999999996447, -8.300000000000000711 ) ) ;
#273 = VERTEX_POINT ( 'NONE', #215 ) ;
#274 = CARTESIAN_POINT ( 'NONE',  ( -18.99999999999999645, 0.0000000000000000000, -11.25000000000000000 ) ) ;
#275 = APPLICATION_PROTOCOL_DEFINITION ( 'draft international standard', 'automotive_design', 1998, #185 ) ;
#276 = CARTESIAN_POINT ( 'NONE',  ( 1.138921523207039560E-15, 8.500000000000000000, -9.300000000000009592 ) ) ;
#277 = DIRECTION ( 'NONE',  ( 0.0000000000000000000, 0.0000000000000000000, 1.000000000000000000 ) ) ;
#278 = EDGE_CURVE ( 'NONE', #142, #157, #147, .T. ) ;
#279 = EDGE_LOOP ( 'NONE', ( #424, #20, #377, #113 ) ) ;
#280 = DIRECTION ( 'NONE',  ( 0.0000000000000000000, 1.000000000000000000, 0.0000000000000000000 ) ) ;
#281 = ORIENTED_EDGE ( 'NONE', *, *, #332, .T. ) ;
#282 = EDGE_CURVE ( 'NONE', #343, #172, #153, .T. ) ;
#283 = DIRECTION ( 'NONE',  ( -0.0000000000000000000, -1.000000000000000000, -0.0000000000000000000 ) ) ;
#284 = ORIENTED_EDGE ( 'NONE', *, *, #370, .F. ) ;
#285 = AXIS2_PLACEMENT_3D ( 'NONE', #134, #408, #100 ) ;
#286 = CARTESIAN_POINT ( 'NONE',  ( -3.999999999999996447, 8.500000000000000000, -2.749999999999998224 ) ) ;
#287 = EDGE_LOOP ( 'NONE', ( #301, #420, #446, #76 ) ) ;
#288 = ORIENTED_EDGE ( 'NONE', *, *, #83, .T. ) ;
#289 = DIRECTION ( 'NONE',  ( 0.0000000000000000000, -1.000000000000000000, 0.0000000000000000000 ) ) ;
#290 = FACE_OUTER_BOUND ( 'NONE', #387, .T. ) ;
#291 = PRESENTATION_LAYER_ASSIGNMENT (  '', '', ( #137 ) ) ;
#292 =( GEOMETRIC_REPRESENTATION_CONTEXT ( 3 ) GLOBAL_UNCERTAINTY_ASSIGNED_CONTEXT ( ( #212 ) ) GLOBAL_UNIT_ASSIGNED_CONTEXT ( ( #163, #304, #27 ) ) REPRESENTATION_CONTEXT ( 'NONE', 'WORKASPACE' ) );
#293 = DIRECTION ( 'NONE',  ( 0.0000000000000000000, 0.0000000000000000000, -1.000000000000000000 ) ) ;
#294 = CYLINDRICAL_SURFACE ( 'NONE', #249, 1.000000000000000888 ) ;
#295 = ORIENTED_EDGE ( 'NONE', *, *, #344, .T. ) ;
#296 = CARTESIAN_POINT ( 'NONE',  ( -18.99999999999999645, 0.0000000000000000000, -12.25000000000000000 ) ) ;
#297 = DIRECTION ( 'NONE',  ( -0.0000000000000000000, -1.000000000000000000, -0.0000000000000000000 ) ) ;
#298 = AXIS2_PLACEMENT_3D ( 'NONE', #81, #49, #196 ) ;
#299 = DIRECTION ( 'NONE',  ( 0.0000000000000000000, 0.0000000000000000000, -1.000000000000000000 ) ) ;
#300 = DIRECTION ( 'NONE',  ( 0.0000000000000000000, -1.000000000000000000, 0.0000000000000000000 ) ) ;
#301 = ORIENTED_EDGE ( 'NONE', *, *, #432, .F. ) ;
#302 = DIRECTION ( 'NONE',  ( 0.0000000000000000000, -0.0000000000000000000, 1.000000000000000000 ) ) ;
#303 = VERTEX_POINT ( 'NONE', #378 ) ;
#304 =( NAMED_UNIT ( * ) PLANE_ANGLE_UNIT ( ) SI_UNIT ( $, .RADIAN. ) );
#305 = ADVANCED_FACE ( 'NONE', ( #445, #180 ), #217, .F. ) ;
#306 = DIRECTION ( 'NONE',  ( 0.0000000000000000000, 1.000000000000000000, 0.0000000000000000000 ) ) ;
#307 = CARTESIAN_POINT ( 'NONE',  ( 0.0000000000000000000, 8.500000000000000000, 0.0000000000000000000 ) ) ;
#308 = CARTESIAN_POINT ( 'NONE',  ( -17.99999999999999645, 8.500000000000000000, -11.25000000000000000 ) ) ;
#309 =( GEOMETRIC_REPRESENTATION_CONTEXT ( 3 ) GLOBAL_UNCERTAINTY_ASSIGNED_CONTEXT ( ( #374 ) ) GLOBAL_UNIT_ASSIGNED_CONTEXT ( ( #170, #202, #62 ) ) REPRESENTATION_CONTEXT ( 'NONE', 'WORKASPACE' ) );
#310 = ORIENTED_EDGE ( 'NONE', *, *, #365, .F. ) ;
#311 = AXIS2_PLACEMENT_3D ( 'NONE', #141, #280, #107 ) ;
#312 = ADVANCED_FACE ( 'NONE', ( #243 ), #411, .T. ) ;
#313 = PLANE ( 'NONE',  #360 ) ;
#314 = ORIENTED_EDGE ( 'NONE', *, *, #417, .F. ) ;
#315 = DIRECTION ( 'NONE',  ( 0.0000000000000000000, 0.0000000000000000000, 1.000000000000000000 ) ) ;
#316 = ORIENTED_EDGE ( 'NONE', *, *, #239, .T. ) ;
#317 = CARTESIAN_POINT ( 'NONE',  ( 0.0000000000000000000, 7.499999999999996447, 0.0000000000000000000 ) ) ;
#318 = EDGE_LOOP ( 'NONE', ( #321, #399, #43, #372 ) ) ;
#319 = AXIS2_PLACEMENT_3D ( 'NONE', #393, #434, #257 ) ;
#320 = ADVANCED_FACE ( 'NONE', ( #213 ), #313, .F. ) ;
#321 = ORIENTED_EDGE ( 'NONE', *, *, #252, .F. ) ;
#322 = DIRECTION ( 'NONE',  ( -0.0000000000000000000, -1.000000000000000000, -0.0000000000000000000 ) ) ;
#323 = DIRECTION ( 'NONE',  ( 8.659560562354955045E-17, 0.7071067811865456854, -0.7071067811865493491 ) ) ;
#324 = VERTEX_POINT ( 'NONE', #135 ) ;
#325 = VECTOR ( 'NONE', #383, 1000.000000000000000 ) ;
#326 = CYLINDRICAL_SURFACE ( 'NONE', #2, 1.000000000000000888 ) ;
#327 = VERTEX_POINT ( 'NONE', #375 ) ;
#328 = CARTESIAN_POINT ( 'NONE',  ( 19.00000000000000355, 8.500000000000000000, -2.749999999999997335 ) ) ;
#329 = ORIENTED_EDGE ( 'NONE', *, *, #239, .F. ) ;
#330 = ORIENTED_EDGE ( 'NONE', *, *, #48, .T. ) ;
#331 = DIRECTION ( 'NONE',  ( -0.0000000000000000000, 1.000000000000000000, -0.0000000000000000000 ) ) ;
#332 = EDGE_CURVE ( 'NONE', #157, #115, #207, .T. ) ;
#333 = AXIS2_PLACEMENT_3D ( 'NONE', #152, #117, #431 ) ;
#334 = VECTOR ( 'NONE', #289, 1000.000000000000000 ) ;
#335 = CARTESIAN_POINT ( 'NONE',  ( 4.000000000000003553, 8.500000000000000000, -2.749999999999997335 ) ) ;
#336 = DIRECTION ( 'NONE',  ( 0.0000000000000000000, 0.0000000000000000000, -1.000000000000000000 ) ) ;
#337 = VERTEX_POINT ( 'NONE', #447 ) ;
#338 = EDGE_CURVE ( 'NONE', #111, #88, #433, .T. ) ;
#339 = LINE ( 'NONE', #90, #92 ) ;
#340 = VECTOR ( 'NONE', #362, 1000.000000000000000 ) ;
#341 = FACE_BOUND ( 'NONE', #450, .T. ) ;
#342 = CARTESIAN_POINT ( 'NONE',  ( -18.99999999999999645, 8.500000000000000000, -11.25000000000000000 ) ) ;
#343 = VERTEX_POINT ( 'NONE', #210 ) ;
#344 = EDGE_CURVE ( 'NONE', #380, #349, #70, .T. ) ;
#345 = CARTESIAN_POINT ( 'NONE',  ( 0.0000000000000000000, 7.499999999999996447, 0.0000000000000000000 ) ) ;
#346 = AXIS2_PLACEMENT_3D ( 'NONE', #24, #231, #97 ) ;
#347 = ORIENTED_EDGE ( 'NONE', *, *, #252, .T. ) ;
#348 = CARTESIAN_POINT ( 'NONE',  ( 18.00000000000000355, 8.500000000000000000, -12.25000000000000000 ) ) ;
#349 = VERTEX_POINT ( 'NONE', #348 ) ;
#350 = CARTESIAN_POINT ( 'NONE',  ( 0.0000000000000000000, 0.0000000000000000000, 0.0000000000000000000 ) ) ;
#351 = ORIENTED_EDGE ( 'NONE', *, *, #59, .F. ) ;
#352 = PLANE ( 'NONE',  #146 ) ;
#353 = VERTEX_POINT ( 'NONE', #413 ) ;
#354 = EDGE_CURVE ( 'NONE', #172, #343, #175, .T. ) ;
#355 = LINE ( 'NONE', #6, #340 ) ;
#356 = CARTESIAN_POINT ( 'NONE',  ( 19.00000000000000355, 8.500000000000000000, -11.25000000000000000 ) ) ;
#357 = LINE ( 'NONE', #396, #60 ) ;
#358 = LINE ( 'NONE', #328, #334 ) ;
#359 = LINE ( 'NONE', #194, #263 ) ;
#360 = AXIS2_PLACEMENT_3D ( 'NONE', #64, #40, #244 ) ;
#361 = AXIS2_PLACEMENT_3D ( 'NONE', #406, #442, #444 ) ;
#362 = DIRECTION ( 'NONE',  ( 0.0000000000000000000, -1.000000000000000000, 0.0000000000000000000 ) ) ;
#363 = ORIENTED_EDGE ( 'NONE', *, *, #11, .T. ) ;
#364 = CARTESIAN_POINT ( 'NONE',  ( 1.016456843292303031E-15, 7.499999999999996447, -8.300000000000000711 ) ) ;
#365 = EDGE_CURVE ( 'NONE', #88, #111, #33, .T. ) ;
#366 = PRESENTATION_STYLE_ASSIGNMENT (( #233 ) ) ;
#367 = VECTOR ( 'NONE', #45, 1000.000000000000000 ) ;
#368 = FACE_OUTER_BOUND ( 'NONE', #73, .T. ) ;
#369 = ORIENTED_EDGE ( 'NONE', *, *, #105, .F. ) ;
#370 = EDGE_CURVE ( 'NONE', #52, #65, #110, .T. ) ;
#371 = FACE_OUTER_BOUND ( 'NONE', #181, .T. ) ;
#372 = ORIENTED_EDGE ( 'NONE', *, *, #278, .F. ) ;
#373 = ADVANCED_FACE ( 'NONE', ( #72 ), #132, .F. ) ;
#374 = UNCERTAINTY_MEASURE_WITH_UNIT (LENGTH_MEASURE( 1.000000000000000082E-05 ), #170, 'distance_accuracy_value', 'NONE');
#375 = CARTESIAN_POINT ( 'NONE',  ( -3.999999999999996447, 0.0000000000000000000, 12.25000000000000000 ) ) ;
#376 = DIRECTION ( 'NONE',  ( -0.0000000000000000000, -1.000000000000000000, -0.0000000000000000000 ) ) ;
#377 = ORIENTED_EDGE ( 'NONE', *, *, #451, .T. ) ;
#378 = CARTESIAN_POINT ( 'NONE',  ( 18.00000000000000355, 0.0000000000000000000, -12.25000000000000000 ) ) ;
#379 = AXIS2_PLACEMENT_3D ( 'NONE', #335, #300, #336 ) ;
#380 = VERTEX_POINT ( 'NONE', #112 ) ;
#381 = VECTOR ( 'NONE', #426, 1000.000000000000000 ) ;
#382 = EDGE_CURVE ( 'NONE', #151, #353, #148, .T. ) ;
#383 = DIRECTION ( 'NONE',  ( 1.000000000000000000, 0.0000000000000000000, 4.565061778886334783E-17 ) ) ;
#384 = ORIENTED_EDGE ( 'NONE', *, *, #182, .T. ) ;
#385 = DIRECTION ( 'NONE',  ( 0.0000000000000000000, -1.000000000000000000, 0.0000000000000000000 ) ) ;
#386 = EDGE_LOOP ( 'NONE', ( #125, #314, #405, #237 ) ) ;
#387 = EDGE_LOOP ( 'NONE', ( #416, #330, #397, #220 ) ) ;
#388 = LINE ( 'NONE', #261, #367 ) ;
#389 = EDGE_CURVE ( 'NONE', #104, #273, #44, .T. ) ;
#390 = LINE ( 'NONE', #13, #381 ) ;
#391 = FILL_AREA_STYLE_COLOUR ( '', #30 ) ;
#392 = CYLINDRICAL_SURFACE ( 'NONE', #61, 8.300000000000000711 ) ;
#393 = CARTESIAN_POINT ( 'NONE',  ( 0.0000000000000000000, 8.500000000000000000, 0.0000000000000000000 ) ) ;
#394 = VECTOR ( 'NONE', #385, 1000.000000000000000 ) ;
#395 = EDGE_CURVE ( 'NONE', #129, #151, #358, .T. ) ;
#396 = CARTESIAN_POINT ( 'NONE',  ( -17.99999999999999645, 8.500000000000000000, -12.25000000000000000 ) ) ;
#397 = ORIENTED_EDGE ( 'NONE', *, *, #234, .F. ) ;
#398 = DIRECTION ( 'NONE',  ( 0.0000000000000000000, 0.0000000000000000000, 1.000000000000000000 ) ) ;
#399 = ORIENTED_EDGE ( 'NONE', *, *, #96, .F. ) ;
#400 = CARTESIAN_POINT ( 'NONE',  ( -18.99999999999999645, 8.500000000000000000, -12.25000000000000000 ) ) ;
#401 = ADVANCED_FACE ( 'NONE', ( #79 ), #392, .F. ) ;
#402 = ORIENTED_EDGE ( 'NONE', *, *, #75, .T. ) ;
#403 = VECTOR ( 'NONE', #435, 1000.000000000000000 ) ;
#404 = DIRECTION ( 'NONE',  ( -0.0000000000000000000, -0.0000000000000000000, -1.000000000000000000 ) ) ;
#405 = ORIENTED_EDGE ( 'NONE', *, *, #83, .F. ) ;
#406 = CARTESIAN_POINT ( 'NONE',  ( 0.0000000000000000000, 0.0000000000000000000, 0.0000000000000000000 ) ) ;
#407 = FACE_OUTER_BOUND ( 'NONE', #149, .T. ) ;
#408 = DIRECTION ( 'NONE',  ( 0.0000000000000000000, 1.000000000000000000, 0.0000000000000000000 ) ) ;
#409 = PRODUCT_CONTEXT ( 'NONE', #185, 'mechanical' ) ;
#410 = VECTOR ( 'NONE', #427, 1000.000000000000000 ) ;
#411 = CYLINDRICAL_SURFACE ( 'NONE', #169, 15.00000000000000000 ) ;
#412 = AXIS2_PLACEMENT_3D ( 'NONE', #441, #126, #236 ) ;
#413 = CARTESIAN_POINT ( 'NONE',  ( 4.000000000000003553, 0.0000000000000000000, 12.25000000000000178 ) ) ;
#414 = ORIENTED_EDGE ( 'NONE', *, *, #430, .T. ) ;
#415 = DIRECTION ( 'NONE',  ( -1.000000000000000000, 0.0000000000000000000, -4.565061778886334783E-17 ) ) ;
#416 = ORIENTED_EDGE ( 'NONE', *, *, #354, .T. ) ;
#417 = EDGE_CURVE ( 'NONE', #337, #380, #7, .T. ) ;
#418 = DIRECTION ( 'NONE',  ( 0.0000000000000000000, 0.0000000000000000000, 1.000000000000000000 ) ) ;
#419 = AXIS2_PLACEMENT_3D ( 'NONE', #308, #176, #103 ) ;
#420 = ORIENTED_EDGE ( 'NONE', *, *, #66, .F. ) ;
#421 = AXIS2_PLACEMENT_3D ( 'NONE', #178, #283, #418 ) ;
#422 = DIRECTION ( 'NONE',  ( 0.0000000000000000000, 1.000000000000000000, 0.0000000000000000000 ) ) ;
#423 = ORIENTED_EDGE ( 'NONE', *, *, #36, .F. ) ;
#424 = ORIENTED_EDGE ( 'NONE', *, *, #48, .F. ) ;
#425 = LINE ( 'NONE', #296, #410 ) ;
#426 = DIRECTION ( 'NONE',  ( -0.0000000000000000000, -0.0000000000000000000, -1.000000000000000000 ) ) ;
#427 = DIRECTION ( 'NONE',  ( 0.0000000000000000000, 0.0000000000000000000, 1.000000000000000000 ) ) ;
#428 = CARTESIAN_POINT ( 'NONE',  ( 0.0000000000000000000, 0.0000000000000000000, 0.0000000000000000000 ) ) ;
#429 = ORIENTED_EDGE ( 'NONE', *, *, #154, .T. ) ;
#430 = EDGE_CURVE ( 'NONE', #151, #337, #390, .T. ) ;
#431 = DIRECTION ( 'NONE',  ( 0.0000000000000000000, 0.0000000000000000000, 1.000000000000000000 ) ) ;
#432 = EDGE_CURVE ( 'NONE', #65, #129, #191, .T. ) ;
#433 = CIRCLE ( 'NONE', #124, 9.300000000000009592 ) ;
#434 = DIRECTION ( 'NONE',  ( -0.0000000000000000000, -1.000000000000000000, -0.0000000000000000000 ) ) ;
#435 = DIRECTION ( 'NONE',  ( -1.000000000000000000, -0.0000000000000000000, -0.0000000000000000000 ) ) ;
#436 = ORIENTED_EDGE ( 'NONE', *, *, #282, .F. ) ;
#437 = EDGE_LOOP ( 'NONE', ( #127, #363, #310, #195 ) ) ;
#438 = AXIS2_PLACEMENT_3D ( 'NONE', #345, #143, #277 ) ;
#439 = CARTESIAN_POINT ( 'NONE',  ( -17.99999999999999645, 0.0000000000000000000, -12.25000000000000000 ) ) ;
#440 = PRODUCT_DEFINITION_CONTEXT ( 'detailed design', #245, 'design' ) ;
#441 = CARTESIAN_POINT ( 'NONE',  ( -18.99999999999999645, 8.500000000000000000, -12.25000000000000000 ) ) ;
#442 = DIRECTION ( 'NONE',  ( 0.0000000000000000000, 0.0000000000000000000, 1.000000000000000000 ) ) ;
#443 = DIRECTION ( 'NONE',  ( 0.0000000000000000000, 0.0000000000000000000, 1.000000000000000000 ) ) ;
#444 = DIRECTION ( 'NONE',  ( 1.000000000000000000, 0.0000000000000000000, 0.0000000000000000000 ) ) ;
#445 = FACE_OUTER_BOUND ( 'NONE', #34, .T. ) ;
#446 = ORIENTED_EDGE ( 'NONE', *, *, #382, .F. ) ;
#447 = CARTESIAN_POINT ( 'NONE',  ( 19.00000000000000355, 0.0000000000000000000, -11.25000000000000000 ) ) ;
#448 = ORIENTED_EDGE ( 'NONE', *, *, #209, .F. ) ;
#449 = DIRECTION ( 'NONE',  ( 0.0000000000000000000, -1.000000000000000000, 0.0000000000000000000 ) ) ;
#450 = EDGE_LOOP ( 'NONE', ( #122, #198 ) ) ;
#451 = EDGE_CURVE ( 'NONE', #172, #273, #16, .T. ) ;
ENDSEC;
END-ISO-10303-21;
