ISO-10303-21;
HEADER;
FILE_DESCRIPTION (( 'STEP AP214' ),
    '1' );
FILE_NAME ('TransferShim.STEP',
    '2026-08-23T21:03:18',
    ( 'root' ),
    ( '' ),
    'SwSTEP 2.0',
    'SolidWorks 2023',
    '' );
FILE_SCHEMA (( 'AUTOMOTIVE_DESIGN' ));
ENDSEC;

DATA;
#1 = DIRECTION ( 'NONE',  ( 0.0000000000000000000, 0.0000000000000000000, 1.000000000000000000 ) ) ;
#2 = DIRECTION ( 'NONE',  ( 0.0000000000000000000, 0.0000000000000000000, 1.000000000000000000 ) ) ;
#3 = VERTEX_POINT ( 'NONE', #548 ) ;
#4 = EDGE_CURVE ( 'NONE', #398, #3, #290, .T. ) ;
#5 = CYLINDRICAL_SURFACE ( 'NONE', #101, 10.50000000000000000 ) ;
#6 = VERTEX_POINT ( 'NONE', #497 ) ;
#7 = LINE ( 'NONE', #98, #71 ) ;
#8 = ORIENTED_EDGE ( 'NONE', *, *, #97, .F. ) ;
#9 = EDGE_CURVE ( 'NONE', #521, #273, #477, .T. ) ;
#10 = DIRECTION ( 'NONE',  ( -0.0000000000000000000, -1.000000000000000000, -0.0000000000000000000 ) ) ;
#11 = ORIENTED_EDGE ( 'NONE', *, *, #600, .T. ) ;
#12 = CARTESIAN_POINT ( 'NONE',  ( -17.99999999999999645, 0.0000000000000000000, -11.25000000000000000 ) ) ;
#13 = VERTEX_POINT ( 'NONE', #209 ) ;
#14 = AXIS2_PLACEMENT_3D ( 'NONE', #12, #236, #575 ) ;
#15 = EDGE_LOOP ( 'NONE', ( #200, #567, #109, #454 ) ) ;
#16 = EDGE_CURVE ( 'NONE', #3, #398, #123, .T. ) ;
#17 = VECTOR ( 'NONE', #39, 1000.000000000000000 ) ;
#18 = DIRECTION ( 'NONE',  ( 0.0000000000000000000, 0.0000000000000000000, 1.000000000000000000 ) ) ;
#19 = PLANE ( 'NONE',  #206 ) ;
#20 = VECTOR ( 'NONE', #449, 1000.000000000000000 ) ;
#21 = ORIENTED_EDGE ( 'NONE', *, *, #136, .F. ) ;
#22 = CARTESIAN_POINT ( 'NONE',  ( 0.0000000000000000000, 4.249999999999995559, 0.0000000000000000000 ) ) ;
#23 = ORIENTED_EDGE ( 'NONE', *, *, #487, .F. ) ;
#24 = AXIS2_PLACEMENT_3D ( 'NONE', #195, #384, #571 ) ;
#25 = CARTESIAN_POINT ( 'NONE',  ( 0.0000000000000000000, 4.400000000000000355, 10.50000000000000000 ) ) ;
#26 = MECHANICAL_DESIGN_GEOMETRIC_PRESENTATION_REPRESENTATION (  '', ( #82 ), #353 ) ;
#27 = ORIENTED_EDGE ( 'NONE', *, *, #171, .F. ) ;
#28 = ADVANCED_FACE ( 'NONE', ( #160, #166 ), #452, .F. ) ;
#29 = DIRECTION ( 'NONE',  ( -1.000000000000000000, -0.0000000000000000000, -0.0000000000000000000 ) ) ;
#30 = ORIENTED_EDGE ( 'NONE', *, *, #201, .F. ) ;
#31 = DIRECTION ( 'NONE',  ( -0.0000000000000000000, 1.000000000000000000, -0.0000000000000000000 ) ) ;
#32 = CARTESIAN_POINT ( 'NONE',  ( 1.441053506140459343E-15, 4.400000000000000355, -11.76709486477061617 ) ) ;
#33 = VERTEX_POINT ( 'NONE', #158 ) ;
#34 = EDGE_CURVE ( 'NONE', #6, #462, #400, .T. ) ;
#35 = CARTESIAN_POINT ( 'NONE',  ( 4.000000000000003553, 5.000000000000000000, -2.749999999999997335 ) ) ;
#36 = VERTEX_POINT ( 'NONE', #546 ) ;
#37 = ADVANCED_FACE ( 'NONE', ( #544 ), #111, .F. ) ;
#38 = VECTOR ( 'NONE', #355, 1000.000000000000000 ) ;
#39 = DIRECTION ( 'NONE',  ( 0.0000000000000000000, 1.000000000000000000, 0.0000000000000000000 ) ) ;
#40 = DIRECTION ( 'NONE',  ( 0.0000000000000000000, 1.000000000000000000, 0.0000000000000000000 ) ) ;
#41 = EDGE_LOOP ( 'NONE', ( #336, #438, #390, #232, #217, #354, #432, #244 ) ) ;
#42 = DIRECTION ( 'NONE',  ( 0.0000000000000000000, 0.0000000000000000000, 1.000000000000000000 ) ) ;
#43 = DIRECTION ( 'NONE',  ( 0.0000000000000000000, 1.000000000000000000, 0.0000000000000000000 ) ) ;
#44 = VECTOR ( 'NONE', #391, 1000.000000000000000 ) ;
#45 = DIRECTION ( 'NONE',  ( 0.0000000000000000000, 0.0000000000000000000, 1.000000000000000000 ) ) ;
#46 = CIRCLE ( 'NONE', #422, 11.76709486477061617 ) ;
#47 = DIRECTION ( 'NONE',  ( 0.0000000000000000000, 1.000000000000000000, 0.0000000000000000000 ) ) ;
#48 = ORIENTED_EDGE ( 'NONE', *, *, #409, .T. ) ;
#49 = EDGE_CURVE ( 'NONE', #273, #460, #328, .T. ) ;
#50 = AXIS2_PLACEMENT_3D ( 'NONE', #164, #230, #421 ) ;
#51 = CARTESIAN_POINT ( 'NONE',  ( 18.00000000000000355, 0.0000000000000000000, -12.25000000000000000 ) ) ;
#52 = EDGE_LOOP ( 'NONE', ( #403, #416, #437, #141 ) ) ;
#53 = CARTESIAN_POINT ( 'NONE',  ( 1.016456843292303031E-15, 5.000000000000000000, 8.300000000000000711 ) ) ;
#54 = ORIENTED_EDGE ( 'NONE', *, *, #425, .T. ) ;
#55 = LINE ( 'NONE', #53, #44 ) ;
#56 = ORIENTED_EDGE ( 'NONE', *, *, #69, .T. ) ;
#57 =( NAMED_UNIT ( * ) PLANE_ANGLE_UNIT ( ) SI_UNIT ( $, .RADIAN. ) );
#58 = ORIENTED_EDGE ( 'NONE', *, *, #148, .F. ) ;
#59 = EDGE_LOOP ( 'NONE', ( #11, #490 ) ) ;
#60 = ADVANCED_FACE ( 'NONE', ( #322, #605 ), #597, .F. ) ;
#61 = DIRECTION ( 'NONE',  ( 0.0000000000000000000, 0.0000000000000000000, 1.000000000000000000 ) ) ;
#62 = DIRECTION ( 'NONE',  ( 0.0000000000000000000, 0.0000000000000000000, 1.000000000000000000 ) ) ;
#63 = ORIENTED_EDGE ( 'NONE', *, *, #358, .T. ) ;
#64 = PLANE ( 'NONE',  #306 ) ;
#65 = VECTOR ( 'NONE', #108, 1000.000000000000000 ) ;
#66 = DIRECTION ( 'NONE',  ( 1.000000000000000000, 0.0000000000000000000, 0.0000000000000000000 ) ) ;
#67 = DIRECTION ( 'NONE',  ( -1.000000000000000000, 0.0000000000000000000, 0.0000000000000000000 ) ) ;
#68 = CARTESIAN_POINT ( 'NONE',  ( -18.99999999999999645, 5.000000000000000000, -11.25000000000000000 ) ) ;
#69 = EDGE_CURVE ( 'NONE', #345, #572, #121, .T. ) ;
#70 = ORIENTED_EDGE ( 'NONE', *, *, #386, .T. ) ;
#71 = VECTOR ( 'NONE', #143, 1000.000000000000000 ) ;
#72 = DIRECTION ( 'NONE',  ( 0.0000000000000000000, 0.0000000000000000000, 1.000000000000000000 ) ) ;
#73 = AXIS2_PLACEMENT_3D ( 'NONE', #609, #362, #506 ) ;
#74 = ORIENTED_EDGE ( 'NONE', *, *, #369, .F. ) ;
#75 = DIRECTION ( 'NONE',  ( 0.0000000000000000000, 0.0000000000000000000, -1.000000000000000000 ) ) ;
#76 = AXIS2_PLACEMENT_3D ( 'NONE', #312, #262, #61 ) ;
#77 = CARTESIAN_POINT ( 'NONE',  ( 4.000000000000003553, 0.0000000000000000000, -2.749999999999997335 ) ) ;
#78 = CYLINDRICAL_SURFACE ( 'NONE', #100, 15.00000000000000000 ) ;
#79 = EDGE_LOOP ( 'NONE', ( #288, #23, #174, #525 ) ) ;
#80 = DIRECTION ( 'NONE',  ( 0.0000000000000000000, 0.0000000000000000000, 1.000000000000000000 ) ) ;
#81 = CARTESIAN_POINT ( 'NONE',  ( -17.99999999999999645, 0.0000000000000000000, -12.25000000000000000 ) ) ;
#82 = STYLED_ITEM ( 'NONE', ( #127 ), #359 ) ;
#83 = CYLINDRICAL_SURFACE ( 'NONE', #394, 14.99999999999999822 ) ;
#84 = DIRECTION ( 'NONE',  ( 0.0000000000000000000, 0.0000000000000000000, 1.000000000000000000 ) ) ;
#85 = DIRECTION ( 'NONE',  ( 0.0000000000000000000, -1.000000000000000000, 0.0000000000000000000 ) ) ;
#86 = UNCERTAINTY_MEASURE_WITH_UNIT (LENGTH_MEASURE( 1.000000000000000082E-05 ), #296, 'distance_accuracy_value', 'NONE');
#87 = EDGE_CURVE ( 'NONE', #273, #486, #413, .T. ) ;
#88 = DIRECTION ( 'NONE',  ( 0.0000000000000000000, -0.0000000000000000000, 1.000000000000000000 ) ) ;
#89 = CARTESIAN_POINT ( 'NONE',  ( 1.285879139104720831E-15, 5.000000000000000000, -10.50000000000000000 ) ) ;
#90 = DIRECTION ( 'NONE',  ( 0.0000000000000000000, 1.000000000000000000, 0.0000000000000000000 ) ) ;
#91 = VECTOR ( 'NONE', #318, 1000.000000000000000 ) ;
#92 = FACE_OUTER_BOUND ( 'NONE', #180, .T. ) ;
#93 = EDGE_LOOP ( 'NONE', ( #342, #258, #265, #574 ) ) ;
#94 = CIRCLE ( 'NONE', #50, 8.300000000000000711 ) ;
#95 = DIRECTION ( 'NONE',  ( 0.0000000000000000000, 1.000000000000000000, 0.0000000000000000000 ) ) ;
#96 = VERTEX_POINT ( 'NONE', #364 ) ;
#97 = EDGE_CURVE ( 'NONE', #212, #105, #555, .T. ) ;
#98 = CARTESIAN_POINT ( 'NONE',  ( 4.000000000000003553, 5.000000000000000000, 12.25000000000000178 ) ) ;
#99 = VERTEX_POINT ( 'NONE', #184 ) ;
#100 = AXIS2_PLACEMENT_3D ( 'NONE', #173, #85, #419 ) ;
#101 = AXIS2_PLACEMENT_3D ( 'NONE', #382, #47, #2 ) ;
#102 = PLANE ( 'NONE',  #24 ) ;
#103 = EDGE_LOOP ( 'NONE', ( #585, #592, #48, #430 ) ) ;
#104 = DIRECTION ( 'NONE',  ( 0.0000000000000000000, 0.0000000000000000000, 1.000000000000000000 ) ) ;
#105 = VERTEX_POINT ( 'NONE', #281 ) ;
#106 = EDGE_CURVE ( 'NONE', #604, #96, #440, .T. ) ;
#107 = EDGE_LOOP ( 'NONE', ( #147, #379 ) ) ;
#108 = DIRECTION ( 'NONE',  ( 0.0000000000000000000, 1.000000000000000000, 0.0000000000000000000 ) ) ;
#109 = ORIENTED_EDGE ( 'NONE', *, *, #266, .T. ) ;
#110 = CARTESIAN_POINT ( 'NONE',  ( 18.00000000000000355, 5.000000000000000000, -11.25000000000000000 ) ) ;
#111 = PLANE ( 'NONE',  #532 ) ;
#112 = CARTESIAN_POINT ( 'NONE',  ( 1.285879139104720831E-15, 4.400000000000000355, -10.50000000000000000 ) ) ;
#113 = EDGE_CURVE ( 'NONE', #371, #320, #128, .T. ) ;
#114 = EDGE_LOOP ( 'NONE', ( #241, #308, #334, #247 ) ) ;
#115 = CARTESIAN_POINT ( 'NONE',  ( -18.99999999999999645, 0.0000000000000000000, -12.25000000000000000 ) ) ;
#116 = CARTESIAN_POINT ( 'NONE',  ( 0.0000000000000000000, 5.000000000000000000, 0.0000000000000000000 ) ) ;
#117 = VECTOR ( 'NONE', #526, 1000.000000000000000 ) ;
#118 = CARTESIAN_POINT ( 'NONE',  ( -18.99999999999999645, 0.0000000000000000000, -12.25000000000000000 ) ) ;
#119 = AXIS2_PLACEMENT_3D ( 'NONE', #246, #10, #524 ) ;
#120 = EDGE_CURVE ( 'NONE', #156, #582, #343, .T. ) ;
#121 = LINE ( 'NONE', #315, #580 ) ;
#122 = CARTESIAN_POINT ( 'NONE',  ( 0.0000000000000000000, 5.000000000000000000, 11.76709486477061617 ) ) ;
#123 = CIRCLE ( 'NONE', #76, 10.50000000000000000 ) ;
#124 = CIRCLE ( 'NONE', #291, 1.000000000000000888 ) ;
#125 = CARTESIAN_POINT ( 'NONE',  ( 0.0000000000000000000, 4.249999999999995559, 8.300000000000000711 ) ) ;
#126 = ADVANCED_FACE ( 'NONE', ( #510 ), #83, .T. ) ;
#127 = PRESENTATION_STYLE_ASSIGNMENT (( #129 ) ) ;
#128 = LINE ( 'NONE', #551, #314 ) ;
#129 = SURFACE_STYLE_USAGE ( .BOTH. , #514 ) ;
#130 = ORIENTED_EDGE ( 'NONE', *, *, #340, .T. ) ;
#131 = AXIS2_PLACEMENT_3D ( 'NONE', #476, #240, #292 ) ;
#132 = AXIS2_PLACEMENT_3D ( 'NONE', #157, #378, #553 ) ;
#133 = CARTESIAN_POINT ( 'NONE',  ( -18.99999999999999645, 5.000000000000000000, -11.25000000000000000 ) ) ;
#134 =( LENGTH_UNIT ( ) NAMED_UNIT ( * ) SI_UNIT ( .MILLI., .METRE. ) );
#135 = ORIENTED_EDGE ( 'NONE', *, *, #142, .F. ) ;
#136 = EDGE_CURVE ( 'NONE', #96, #604, #46, .T. ) ;
#137 = DIRECTION ( 'NONE',  ( 0.0000000000000000000, 0.0000000000000000000, 1.000000000000000000 ) ) ;
#138 = ORIENTED_EDGE ( 'NONE', *, *, #515, .F. ) ;
#139 = DIRECTION ( 'NONE',  ( 0.0000000000000000000, 1.000000000000000000, 0.0000000000000000000 ) ) ;
#140 = CARTESIAN_POINT ( 'NONE',  ( 0.0000000000000000000, 5.000000000000000000, 0.0000000000000000000 ) ) ;
#141 = ORIENTED_EDGE ( 'NONE', *, *, #69, .F. ) ;
#142 = EDGE_CURVE ( 'NONE', #371, #154, #182, .T. ) ;
#143 = DIRECTION ( 'NONE',  ( -0.0000000000000000000, 1.000000000000000000, -0.0000000000000000000 ) ) ;
#144 = VERTEX_POINT ( 'NONE', #513 ) ;
#145 = CIRCLE ( 'NONE', #601, 15.00000000000000000 ) ;
#146 = DIRECTION ( 'NONE',  ( 0.0000000000000000000, 0.0000000000000000000, 1.000000000000000000 ) ) ;
#147 = ORIENTED_EDGE ( 'NONE', *, *, #120, .T. ) ;
#148 = EDGE_CURVE ( 'NONE', #448, #521, #467, .T. ) ;
#149 = CYLINDRICAL_SURFACE ( 'NONE', #311, 11.76709486477061617 ) ;
#150 = EDGE_LOOP ( 'NONE', ( #63, #366, #536, #376 ) ) ;
#151 = VECTOR ( 'NONE', #40, 1000.000000000000000 ) ;
#152 = VECTOR ( 'NONE', #31, 1000.000000000000000 ) ;
#153 = DIRECTION ( 'NONE',  ( 0.0000000000000000000, 1.000000000000000000, 0.0000000000000000000 ) ) ;
#154 = VERTEX_POINT ( 'NONE', #410 ) ;
#155 = ADVANCED_FACE ( 'NONE', ( #271 ), #552, .F. ) ;
#156 = VERTEX_POINT ( 'NONE', #176 ) ;
#157 = CARTESIAN_POINT ( 'NONE',  ( 0.0000000000000000000, 4.249999999999995559, 0.0000000000000000000 ) ) ;
#158 = CARTESIAN_POINT ( 'NONE',  ( -3.999999999999996447, 5.000000000000000000, 12.25000000000000000 ) ) ;
#159 = CARTESIAN_POINT ( 'NONE',  ( -3.999999999999996447, 0.0000000000000000000, -2.749999999999998224 ) ) ;
#160 = FACE_BOUND ( 'NONE', #531, .T. ) ;
#161 = AXIS2_PLACEMENT_3D ( 'NONE', #423, #564, #185 ) ;
#162 = EDGE_CURVE ( 'NONE', #144, #538, #368, .T. ) ;
#163 = DIRECTION ( 'NONE',  ( 0.0000000000000000000, 1.000000000000000000, 0.0000000000000000000 ) ) ;
#164 = CARTESIAN_POINT ( 'NONE',  ( 0.0000000000000000000, 0.0000000000000000000, 0.0000000000000000000 ) ) ;
#165 = LINE ( 'NONE', #309, #324 ) ;
#166 = FACE_OUTER_BOUND ( 'NONE', #59, .T. ) ;
#167 = DIRECTION ( 'NONE',  ( 0.0000000000000000000, 0.0000000000000000000, 1.000000000000000000 ) ) ;
#168 = DIRECTION ( 'NONE',  ( 0.0000000000000000000, 1.000000000000000000, 0.0000000000000000000 ) ) ;
#169 = CARTESIAN_POINT ( 'NONE',  ( -18.99999999999999645, 0.0000000000000000000, 12.25000000000000000 ) ) ;
#170 = ADVANCED_BREP_SHAPE_REPRESENTATION ( 'TransferShim', ( #359, #533 ), #375 ) ;
#171 = EDGE_CURVE ( 'NONE', #249, #398, #325, .T. ) ;
#172 = DIRECTION ( 'NONE',  ( 0.0000000000000000000, 1.000000000000000000, 0.0000000000000000000 ) ) ;
#173 = CARTESIAN_POINT ( 'NONE',  ( -3.999999999999996447, 5.000000000000000000, -2.749999999999998224 ) ) ;
#174 = ORIENTED_EDGE ( 'NONE', *, *, #275, .F. ) ;
#175 = AXIS2_PLACEMENT_3D ( 'NONE', #256, #401, #264 ) ;
#176 = CARTESIAN_POINT ( 'NONE',  ( 0.0000000000000000000, 0.0000000000000000000, -8.300000000000000711 ) ) ;
#177 =( NAMED_UNIT ( * ) PLANE_ANGLE_UNIT ( ) SI_UNIT ( $, .RADIAN. ) );
#178 = DIRECTION ( 'NONE',  ( 0.0000000000000000000, 0.7071067811865451302, 0.7071067811865500152 ) ) ;
#179 = FACE_OUTER_BOUND ( 'NONE', #229, .T. ) ;
#180 = EDGE_LOOP ( 'NONE', ( #74, #351, #224, #489 ) ) ;
#181 = AXIS2_PLACEMENT_3D ( 'NONE', #188, #153, #104 ) ;
#182 = CIRCLE ( 'NONE', #502, 15.00000000000000000 ) ;
#183 = CIRCLE ( 'NONE', #132, 8.300000000000000711 ) ;
#184 = CARTESIAN_POINT ( 'NONE',  ( -18.99999999999999645, 0.0000000000000000000, -2.749999999999999112 ) ) ;
#185 = DIRECTION ( 'NONE',  ( 0.0000000000000000000, 0.0000000000000000000, -1.000000000000000000 ) ) ;
#186 = ORIENTED_EDGE ( 'NONE', *, *, #346, .T. ) ;
#187 = DIRECTION ( 'NONE',  ( 0.0000000000000000000, 0.0000000000000000000, 1.000000000000000000 ) ) ;
#188 = CARTESIAN_POINT ( 'NONE',  ( 0.0000000000000000000, 5.000000000000000000, 0.0000000000000000000 ) ) ;
#189 = ORIENTED_EDGE ( 'NONE', *, *, #113, .F. ) ;
#190 = EDGE_CURVE ( 'NONE', #462, #105, #363, .T. ) ;
#191 = DIRECTION ( 'NONE',  ( -0.0000000000000000000, 1.000000000000000000, -0.0000000000000000000 ) ) ;
#192 = ORIENTED_EDGE ( 'NONE', *, *, #97, .T. ) ;
#193 = AXIS2_PLACEMENT_3D ( 'NONE', #22, #591, #62 ) ;
#194 = EDGE_CURVE ( 'NONE', #582, #156, #94, .T. ) ;
#195 = CARTESIAN_POINT ( 'NONE',  ( 0.0000000000000000000, 5.000000000000000000, 0.0000000000000000000 ) ) ;
#196 = EDGE_LOOP ( 'NONE', ( #54, #395, #611, #330 ) ) ;
#197 = DIRECTION ( 'NONE',  ( 1.000000000000000000, 0.0000000000000000000, 4.565061778886334783E-17 ) ) ;
#198 = ORIENTED_EDGE ( 'NONE', *, *, #49, .F. ) ;
#199 = CARTESIAN_POINT ( 'NONE',  ( 0.0000000000000000000, 5.000000000000000000, 0.0000000000000000000 ) ) ;
#200 = ORIENTED_EDGE ( 'NONE', *, *, #577, .F. ) ;
#201 = EDGE_CURVE ( 'NONE', #36, #144, #145, .T. ) ;
#202 = ORIENTED_EDGE ( 'NONE', *, *, #568, .F. ) ;
#203 = VECTOR ( 'NONE', #137, 1000.000000000000000 ) ;
#204 = LINE ( 'NONE', #118, #512 ) ;
#205 = DIRECTION ( 'NONE',  ( 0.0000000000000000000, -1.000000000000000000, -0.0000000000000000000 ) ) ;
#206 = AXIS2_PLACEMENT_3D ( 'NONE', #443, #163, #303 ) ;
#207 = DIRECTION ( 'NONE',  ( -1.000000000000000000, 0.0000000000000000000, -4.565061778886335400E-17 ) ) ;
#208 = EDGE_CURVE ( 'NONE', #460, #33, #397, .T. ) ;
#209 = CARTESIAN_POINT ( 'NONE',  ( 0.0000000000000000000, 4.400000000000000355, 11.76709486477061617 ) ) ;
#210 = CARTESIAN_POINT ( 'NONE',  ( -3.999999999999996447, 0.0000000000000000000, 12.25000000000000000 ) ) ;
#211 = PRODUCT_CONTEXT ( 'NONE', #557, 'mechanical' ) ;
#212 = VERTEX_POINT ( 'NONE', #381 ) ;
#213 = CIRCLE ( 'NONE', #562, 11.76709486477061617 ) ;
#214 = FACE_OUTER_BOUND ( 'NONE', #478, .T. ) ;
#215 = DIRECTION ( 'NONE',  ( 0.0000000000000000000, 0.0000000000000000000, -1.000000000000000000 ) ) ;
#216 = CARTESIAN_POINT ( 'NONE',  ( 18.00000000000000355, 5.000000000000000000, -12.25000000000000000 ) ) ;
#217 = ORIENTED_EDGE ( 'NONE', *, *, #523, .T. ) ;
#218 = LINE ( 'NONE', #169, #373 ) ;
#219 = EDGE_CURVE ( 'NONE', #538, #345, #124, .T. ) ;
#220 = CARTESIAN_POINT ( 'NONE',  ( 0.0000000000000000000, 5.000000000000000000, 0.0000000000000000000 ) ) ;
#221 = DIRECTION ( 'NONE',  ( -0.0000000000000000000, -1.000000000000000000, -0.0000000000000000000 ) ) ;
#222 = DIRECTION ( 'NONE',  ( 0.0000000000000000000, 1.000000000000000000, 0.0000000000000000000 ) ) ;
#223 = CARTESIAN_POINT ( 'NONE',  ( -18.99999999999999645, 5.000000000000000000, -2.749999999999999112 ) ) ;
#224 = ORIENTED_EDGE ( 'NONE', *, *, #106, .T. ) ;
#225 = AXIS2_PLACEMENT_3D ( 'NONE', #159, #491, #542 ) ;
#226 = EDGE_CURVE ( 'NONE', #293, #249, #367, .T. ) ;
#227 = CARTESIAN_POINT ( 'NONE',  ( 0.0000000000000000000, 5.000000000000000000, 0.0000000000000000000 ) ) ;
#228 = DIRECTION ( 'NONE',  ( -1.000000000000000000, 0.0000000000000000000, 0.0000000000000000000 ) ) ;
#229 = EDGE_LOOP ( 'NONE', ( #412, #58, #138, #579 ) ) ;
#230 = DIRECTION ( 'NONE',  ( 0.0000000000000000000, 1.000000000000000000, 0.0000000000000000000 ) ) ;
#231 = FACE_OUTER_BOUND ( 'NONE', #103, .T. ) ;
#232 = ORIENTED_EDGE ( 'NONE', *, *, #208, .T. ) ;
#233 = CIRCLE ( 'NONE', #14, 1.000000000000000888 ) ;
#234 = VECTOR ( 'NONE', #406, 1000.000000000000114 ) ;
#235 = DIRECTION ( 'NONE',  ( 0.0000000000000000000, 1.000000000000000000, 0.0000000000000000000 ) ) ;
#236 = DIRECTION ( 'NONE',  ( -0.0000000000000000000, -1.000000000000000000, -0.0000000000000000000 ) ) ;
#237 = EDGE_LOOP ( 'NONE', ( #250, #388, #339, #70, #189, #360, #392, #560 ) ) ;
#238 = ADVANCED_FACE ( 'NONE', ( #357 ), #349, .T. ) ;
#239 = AXIS2_PLACEMENT_3D ( 'NONE', #116, #503, #18 ) ;
#240 = DIRECTION ( 'NONE',  ( 0.0000000000000000000, 1.000000000000000000, 0.0000000000000000000 ) ) ;
#241 = ORIENTED_EDGE ( 'NONE', *, *, #226, .T. ) ;
#242 = ADVANCED_FACE ( 'NONE', ( #455, #547 ), #19, .T. ) ;
#243 = CYLINDRICAL_SURFACE ( 'NONE', #260, 10.50000000000000000 ) ;
#244 = ORIENTED_EDGE ( 'NONE', *, *, #219, .T. ) ;
#245 = AXIS2_PLACEMENT_3D ( 'NONE', #313, #72, #453 ) ;
#246 = CARTESIAN_POINT ( 'NONE',  ( 0.0000000000000000000, 5.000000000000000000, 0.0000000000000000000 ) ) ;
#247 = ORIENTED_EDGE ( 'NONE', *, *, #257, .F. ) ;
#248 = EDGE_CURVE ( 'NONE', #486, #99, #396, .T. ) ;
#249 = VERTEX_POINT ( 'NONE', #112 ) ;
#250 = ORIENTED_EDGE ( 'NONE', *, *, #248, .F. ) ;
#251 = CARTESIAN_POINT ( 'NONE',  ( -10.50000000000000000, 4.400000000000000355, 0.0000000000000000000 ) ) ;
#252 = LINE ( 'NONE', #259, #20 ) ;
#253 = ADVANCED_FACE ( 'NONE', ( #539 ), #549, .F. ) ;
#254 = CARTESIAN_POINT ( 'NONE',  ( -17.99999999999999645, 5.000000000000000000, -11.25000000000000000 ) ) ;
#255 = CIRCLE ( 'NONE', #175, 8.300000000000000711 ) ;
#256 = CARTESIAN_POINT ( 'NONE',  ( 0.0000000000000000000, 4.249999999999995559, 0.0000000000000000000 ) ) ;
#257 = EDGE_CURVE ( 'NONE', #293, #3, #545, .T. ) ;
#258 = ORIENTED_EDGE ( 'NONE', *, *, #321, .T. ) ;
#259 = CARTESIAN_POINT ( 'NONE',  ( 19.00000000000000355, 5.000000000000000000, -2.749999999999997335 ) ) ;
#260 = AXIS2_PLACEMENT_3D ( 'NONE', #140, #431, #146 ) ;
#261 = AXIS2_PLACEMENT_3D ( 'NONE', #602, #172, #88 ) ;
#262 = DIRECTION ( 'NONE',  ( -0.0000000000000000000, -1.000000000000000000, -0.0000000000000000000 ) ) ;
#263 = CIRCLE ( 'NONE', #131, 11.76709486477061617 ) ;
#264 = DIRECTION ( 'NONE',  ( 0.0000000000000000000, 0.0000000000000000000, 1.000000000000000000 ) ) ;
#265 = ORIENTED_EDGE ( 'NONE', *, *, #162, .F. ) ;
#266 = EDGE_CURVE ( 'NONE', #6, #156, #301, .T. ) ;
#267 = CARTESIAN_POINT ( 'NONE',  ( -18.99999999999999645, 5.000000000000000000, -12.25000000000000000 ) ) ;
#268 = DIRECTION ( 'NONE',  ( -0.0000000000000000000, -1.000000000000000000, -0.0000000000000000000 ) ) ;
#269 = SURFACE_STYLE_FILL_AREA ( #559 ) ;
#270 = ORIENTED_EDGE ( 'NONE', *, *, #34, .T. ) ;
#271 = FACE_OUTER_BOUND ( 'NONE', #472, .T. ) ;
#272 = DIRECTION ( 'NONE',  ( -1.000000000000000000, 0.0000000000000000000, 0.0000000000000000000 ) ) ;
#273 = VERTEX_POINT ( 'NONE', #68 ) ;
#274 = PRESENTATION_LAYER_ASSIGNMENT (  '', '', ( #82 ) ) ;
#275 = EDGE_CURVE ( 'NONE', #294, #99, #495, .T. ) ;
#276 = DIRECTION ( 'NONE',  ( 0.0000000000000000000, 0.0000000000000000000, 1.000000000000000000 ) ) ;
#277 = FACE_OUTER_BOUND ( 'NONE', #15, .T. ) ;
#278 = ORIENTED_EDGE ( 'NONE', *, *, #358, .F. ) ;
#279 = DIRECTION ( 'NONE',  ( -0.0000000000000000000, -0.0000000000000000000, -1.000000000000000000 ) ) ;
#280 = LINE ( 'NONE', #511, #550 ) ;
#281 = CARTESIAN_POINT ( 'NONE',  ( 0.0000000000000000000, 5.000000000000000000, 9.050000000000009592 ) ) ;
#282 = EDGE_CURVE ( 'NONE', #144, #371, #252, .T. ) ;
#283 = DIRECTION ( 'NONE',  ( 0.0000000000000000000, 0.0000000000000000000, -1.000000000000000000 ) ) ;
#284 = CIRCLE ( 'NONE', #501, 10.50000000000000000 ) ;
#285 = AXIS2_PLACEMENT_3D ( 'NONE', #461, #222, #276 ) ;
#286 = CARTESIAN_POINT ( 'NONE',  ( -3.999999999999996447, 5.000000000000000000, -2.749999999999998224 ) ) ;
#287 = LINE ( 'NONE', #435, #117 ) ;
#288 = ORIENTED_EDGE ( 'NONE', *, *, #208, .F. ) ;
#289 = PRODUCT_DEFINITION ( 'UNKNOWN', '', #471, #496 ) ;
#290 = CIRCLE ( 'NONE', #239, 10.50000000000000000 ) ;
#291 = AXIS2_PLACEMENT_3D ( 'NONE', #569, #139, #332 ) ;
#292 = DIRECTION ( 'NONE',  ( -1.000000000000000000, 0.0000000000000000000, 0.0000000000000000000 ) ) ;
#293 = VERTEX_POINT ( 'NONE', #25 ) ;
#294 = VERTEX_POINT ( 'NONE', #210 ) ;
#295 = EDGE_CURVE ( 'NONE', #212, #6, #255, .T. ) ;
#296 =( LENGTH_UNIT ( ) NAMED_UNIT ( * ) SI_UNIT ( .MILLI., .METRE. ) );
#297 = ORIENTED_EDGE ( 'NONE', *, *, #190, .T. ) ;
#298 = EDGE_LOOP ( 'NONE', ( #529, #484 ) ) ;
#299 = ORIENTED_EDGE ( 'NONE', *, *, #148, .T. ) ;
#300 = ADVANCED_FACE ( 'NONE', ( #214 ), #64, .F. ) ;
#301 = LINE ( 'NONE', #307, #417 ) ;
#302 = EDGE_LOOP ( 'NONE', ( #27, #499, #590, #509 ) ) ;
#303 = DIRECTION ( 'NONE',  ( 0.0000000000000000000, -0.0000000000000000000, 1.000000000000000000 ) ) ;
#304 = APPLICATION_PROTOCOL_DEFINITION ( 'draft international standard', 'automotive_design', 1998, #474 ) ;
#305 = CARTESIAN_POINT ( 'NONE',  ( 19.00000000000000355, 5.000000000000000000, -12.25000000000000000 ) ) ;
#306 = AXIS2_PLACEMENT_3D ( 'NONE', #267, #405, #75 ) ;
#307 = CARTESIAN_POINT ( 'NONE',  ( 0.0000000000000000000, 5.000000000000000000, -8.300000000000000711 ) ) ;
#308 = ORIENTED_EDGE ( 'NONE', *, *, #171, .T. ) ;
#309 = CARTESIAN_POINT ( 'NONE',  ( 19.00000000000000355, 5.000000000000000000, -11.25000000000000000 ) ) ;
#310 = ADVANCED_FACE ( 'NONE', ( #493 ), #534, .F. ) ;
#311 = AXIS2_PLACEMENT_3D ( 'NONE', #199, #95, #338 ) ;
#312 = CARTESIAN_POINT ( 'NONE',  ( 0.0000000000000000000, 5.000000000000000000, 0.0000000000000000000 ) ) ;
#313 = CARTESIAN_POINT ( 'NONE',  ( -18.99999999999999645, 5.000000000000000000, -12.25000000000000000 ) ) ;
#314 = VECTOR ( 'NONE', #408, 1000.000000000000000 ) ;
#315 = CARTESIAN_POINT ( 'NONE',  ( 18.00000000000000355, 5.000000000000000000, -12.25000000000000000 ) ) ;
#316 = AXIS2_PLACEMENT_3D ( 'NONE', #254, #356, #492 ) ;
#317 = ORIENTED_EDGE ( 'NONE', *, *, #34, .F. ) ;
#318 = DIRECTION ( 'NONE',  ( 0.0000000000000000000, -1.000000000000000000, 0.0000000000000000000 ) ) ;
#319 = FACE_OUTER_BOUND ( 'NONE', #79, .T. ) ;
#320 = VERTEX_POINT ( 'NONE', #399 ) ;
#321 = EDGE_CURVE ( 'NONE', #320, #538, #165, .T. ) ;
#322 = FACE_OUTER_BOUND ( 'NONE', #237, .T. ) ;
#323 = FILL_AREA_STYLE_COLOUR ( '', #485 ) ;
#324 = VECTOR ( 'NONE', #586, 1000.000000000000000 ) ;
#325 = LINE ( 'NONE', #558, #17 ) ;
#326 = CARTESIAN_POINT ( 'NONE',  ( 19.00000000000000355, 0.0000000000000000000, -2.749999999999997335 ) ) ;
#327 = ORIENTED_EDGE ( 'NONE', *, *, #487, .T. ) ;
#328 = LINE ( 'NONE', #519, #203 ) ;
#329 = DIRECTION ( 'NONE',  ( 0.0000000000000000000, 0.0000000000000000000, 1.000000000000000000 ) ) ;
#330 = ORIENTED_EDGE ( 'NONE', *, *, #494, .T. ) ;
#331 = ADVANCED_FACE ( 'NONE', ( #500 ), #352, .F. ) ;
#332 = DIRECTION ( 'NONE',  ( 0.0000000000000000000, 0.0000000000000000000, 1.000000000000000000 ) ) ;
#333 = CARTESIAN_POINT ( 'NONE',  ( 1.016456843292303031E-15, 0.0000000000000000000, 8.300000000000000711 ) ) ;
#334 = ORIENTED_EDGE ( 'NONE', *, *, #4, .T. ) ;
#335 = FACE_OUTER_BOUND ( 'NONE', #302, .T. ) ;
#336 = ORIENTED_EDGE ( 'NONE', *, *, #447, .T. ) ;
#337 = AXIS2_PLACEMENT_3D ( 'NONE', #446, #498, #207 ) ;
#338 = DIRECTION ( 'NONE',  ( 0.0000000000000000000, 0.0000000000000000000, 1.000000000000000000 ) ) ;
#339 = ORIENTED_EDGE ( 'NONE', *, *, #340, .F. ) ;
#340 = EDGE_CURVE ( 'NONE', #572, #448, #204, .T. ) ;
#341 = FACE_BOUND ( 'NONE', #576, .T. ) ;
#342 = ORIENTED_EDGE ( 'NONE', *, *, #113, .T. ) ;
#343 = CIRCLE ( 'NONE', #73, 8.300000000000000711 ) ;
#344 = FACE_OUTER_BOUND ( 'NONE', #114, .T. ) ;
#345 = VERTEX_POINT ( 'NONE', #216 ) ;
#346 = EDGE_CURVE ( 'NONE', #105, #462, #543, .T. ) ;
#347 = UNCERTAINTY_MEASURE_WITH_UNIT (LENGTH_MEASURE( 1.000000000000000082E-05 ), #134, 'distance_accuracy_value', 'NONE');
#348 = ORIENTED_EDGE ( 'NONE', *, *, #87, .T. ) ;
#349 = CYLINDRICAL_SURFACE ( 'NONE', #444, 1.000000000000000888 ) ;
#350 =( NAMED_UNIT ( * ) SI_UNIT ( $, .STERADIAN. ) SOLID_ANGLE_UNIT ( ) );
#351 = ORIENTED_EDGE ( 'NONE', *, *, #439, .T. ) ;
#352 = PLANE ( 'NONE',  #245 ) ;
#353 =( GEOMETRIC_REPRESENTATION_CONTEXT ( 3 ) GLOBAL_UNCERTAINTY_ASSIGNED_CONTEXT ( ( #347 ) ) GLOBAL_UNIT_ASSIGNED_CONTEXT ( ( #134, #177, #566 ) ) REPRESENTATION_CONTEXT ( 'NONE', 'WORKASPACE' ) );
#354 = ORIENTED_EDGE ( 'NONE', *, *, #201, .T. ) ;
#355 = DIRECTION ( 'NONE',  ( 0.0000000000000000000, 0.0000000000000000000, 1.000000000000000000 ) ) ;
#356 = DIRECTION ( 'NONE',  ( 0.0000000000000000000, 1.000000000000000000, 0.0000000000000000000 ) ) ;
#357 = FACE_OUTER_BOUND ( 'NONE', #52, .T. ) ;
#358 = EDGE_CURVE ( 'NONE', #6, #212, #183, .T. ) ;
#359 = MANIFOLD_SOLID_BREP ( 'o-ring', #505 ) ;
#360 = ORIENTED_EDGE ( 'NONE', *, *, #142, .T. ) ;
#361 = DIRECTION ( 'NONE',  ( 0.0000000000000000000, 0.0000000000000000000, -1.000000000000000000 ) ) ;
#362 = DIRECTION ( 'NONE',  ( 0.0000000000000000000, 1.000000000000000000, 0.0000000000000000000 ) ) ;
#363 = CIRCLE ( 'NONE', #528, 9.050000000000009592 ) ;
#364 = CARTESIAN_POINT ( 'NONE',  ( 0.0000000000000000000, 5.000000000000000000, 11.76709486477061617 ) ) ;
#365 = CARTESIAN_POINT ( 'NONE',  ( 0.0000000000000000000, 4.400000000000000355, 0.0000000000000000000 ) ) ;
#366 = ORIENTED_EDGE ( 'NONE', *, *, #577, .T. ) ;
#367 = CIRCLE ( 'NONE', #480, 10.50000000000000000 ) ;
#368 = LINE ( 'NONE', #516, #473 ) ;
#369 = EDGE_CURVE ( 'NONE', #436, #13, #213, .T. ) ;
#370 = CARTESIAN_POINT ( 'NONE',  ( 0.0000000000000000000, 4.400000000000000355, 0.0000000000000000000 ) ) ;
#371 = VERTEX_POINT ( 'NONE', #326 ) ;
#372 = DIRECTION ( 'NONE',  ( -0.0000000000000000000, -1.000000000000000000, -0.0000000000000000000 ) ) ;
#373 = VECTOR ( 'NONE', #374, 1000.000000000000000 ) ;
#374 = DIRECTION ( 'NONE',  ( 1.000000000000000000, 0.0000000000000000000, 4.565061778886334783E-17 ) ) ;
#375 =( GEOMETRIC_REPRESENTATION_CONTEXT ( 3 ) GLOBAL_UNCERTAINTY_ASSIGNED_CONTEXT ( ( #86 ) ) GLOBAL_UNIT_ASSIGNED_CONTEXT ( ( #296, #57, #350 ) ) REPRESENTATION_CONTEXT ( 'NONE', 'WORKASPACE' ) );
#376 = ORIENTED_EDGE ( 'NONE', *, *, #266, .F. ) ;
#377 = CARTESIAN_POINT ( 'NONE',  ( 4.000000000000003553, 5.000000000000000000, -2.749999999999997335 ) ) ;
#378 = DIRECTION ( 'NONE',  ( 0.0000000000000000000, 1.000000000000000000, 0.0000000000000000000 ) ) ;
#379 = ORIENTED_EDGE ( 'NONE', *, *, #194, .T. ) ;
#380 = ADVANCED_FACE ( 'NONE', ( #179 ), #520, .T. ) ;
#381 = CARTESIAN_POINT ( 'NONE',  ( 1.016456843292303031E-15, 4.249999999999995559, 8.300000000000000711 ) ) ;
#382 = CARTESIAN_POINT ( 'NONE',  ( 0.0000000000000000000, 5.000000000000000000, 0.0000000000000000000 ) ) ;
#383 = ORIENTED_EDGE ( 'NONE', *, *, #226, .F. ) ;
#384 = DIRECTION ( 'NONE',  ( 0.0000000000000000000, 1.000000000000000000, 0.0000000000000000000 ) ) ;
#385 = ORIENTED_EDGE ( 'NONE', *, *, #346, .F. ) ;
#386 = EDGE_CURVE ( 'NONE', #572, #320, #451, .T. ) ;
#387 = FACE_OUTER_BOUND ( 'NONE', #150, .T. ) ;
#388 = ORIENTED_EDGE ( 'NONE', *, *, #515, .T. ) ;
#389 = CARTESIAN_POINT ( 'NONE',  ( 19.00000000000000355, 5.000000000000000000, -11.25000000000000000 ) ) ;
#390 = ORIENTED_EDGE ( 'NONE', *, *, #49, .T. ) ;
#391 = DIRECTION ( 'NONE',  ( -0.0000000000000000000, -1.000000000000000000, -0.0000000000000000000 ) ) ;
#392 = ORIENTED_EDGE ( 'NONE', *, *, #425, .F. ) ;
#393 = AXIS2_PLACEMENT_3D ( 'NONE', #596, #517, #283 ) ;
#394 = AXIS2_PLACEMENT_3D ( 'NONE', #35, #463, #563 ) ;
#395 = ORIENTED_EDGE ( 'NONE', *, *, #568, .T. ) ;
#396 = LINE ( 'NONE', #115, #38 ) ;
#397 = CIRCLE ( 'NONE', #554, 15.00000000000000000 ) ;
#398 = VERTEX_POINT ( 'NONE', #89 ) ;
#399 = CARTESIAN_POINT ( 'NONE',  ( 19.00000000000000355, 0.0000000000000000000, -11.25000000000000000 ) ) ;
#400 = LINE ( 'NONE', #587, #234 ) ;
#401 = DIRECTION ( 'NONE',  ( 0.0000000000000000000, 1.000000000000000000, 0.0000000000000000000 ) ) ;
#402 = CARTESIAN_POINT ( 'NONE',  ( 0.0000000000000000000, 0.0000000000000000000, 0.0000000000000000000 ) ) ;
#403 = ORIENTED_EDGE ( 'NONE', *, *, #219, .F. ) ;
#404 = ADVANCED_FACE ( 'NONE', ( #277 ), #464, .F. ) ;
#405 = DIRECTION ( 'NONE',  ( 1.000000000000000000, 0.0000000000000000000, 0.0000000000000000000 ) ) ;
#406 = DIRECTION ( 'NONE',  ( 8.659560562354962440E-17, 0.7071067811865451302, -0.7071067811865500152 ) ) ;
#407 = CARTESIAN_POINT ( 'NONE',  ( 0.0000000000000000000, 5.000000000000000000, 0.0000000000000000000 ) ) ;
#408 = DIRECTION ( 'NONE',  ( -0.0000000000000000000, -0.0000000000000000000, -1.000000000000000000 ) ) ;
#409 = EDGE_CURVE ( 'NONE', #13, #96, #415, .T. ) ;
#410 = CARTESIAN_POINT ( 'NONE',  ( 4.000000000000003553, 0.0000000000000000000, 12.25000000000000178 ) ) ;
#411 = LINE ( 'NONE', #598, #450 ) ;
#412 = ORIENTED_EDGE ( 'NONE', *, *, #9, .F. ) ;
#413 = LINE ( 'NONE', #133, #91 ) ;
#414 = AXIS2_PLACEMENT_3D ( 'NONE', #251, #205, #215 ) ;
#415 = LINE ( 'NONE', #122, #151 ) ;
#416 = ORIENTED_EDGE ( 'NONE', *, *, #321, .F. ) ;
#417 = VECTOR ( 'NONE', #504, 1000.000000000000000 ) ;
#418 = DIRECTION ( 'NONE',  ( 0.0000000000000000000, 0.0000000000000000000, 1.000000000000000000 ) ) ;
#419 = DIRECTION ( 'NONE',  ( 0.0000000000000000000, 0.0000000000000000000, -1.000000000000000000 ) ) ;
#420 = EDGE_LOOP ( 'NONE', ( #30, #202, #135, #424 ) ) ;
#421 = DIRECTION ( 'NONE',  ( 0.0000000000000000000, 0.0000000000000000000, 1.000000000000000000 ) ) ;
#422 = AXIS2_PLACEMENT_3D ( 'NONE', #595, #168, #80 ) ;
#423 = CARTESIAN_POINT ( 'NONE',  ( -17.99999999999999645, 5.000000000000000000, -11.25000000000000000 ) ) ;
#424 = ORIENTED_EDGE ( 'NONE', *, *, #282, .F. ) ;
#425 = EDGE_CURVE ( 'NONE', #294, #154, #218, .T. ) ;
#426 = DIRECTION ( 'NONE',  ( 0.0000000000000000000, 1.000000000000000000, 0.0000000000000000000 ) ) ;
#427 = CARTESIAN_POINT ( 'NONE',  ( -18.99999999999999645, 5.000000000000000000, 12.25000000000000000 ) ) ;
#428 = ORIENTED_EDGE ( 'NONE', *, *, #447, .F. ) ;
#429 = LINE ( 'NONE', #535, #607 ) ;
#430 = ORIENTED_EDGE ( 'NONE', *, *, #136, .T. ) ;
#431 = DIRECTION ( 'NONE',  ( 0.0000000000000000000, 1.000000000000000000, 0.0000000000000000000 ) ) ;
#432 = ORIENTED_EDGE ( 'NONE', *, *, #162, .T. ) ;
#433 = AXIS2_PLACEMENT_3D ( 'NONE', #606, #221, #329 ) ;
#434 = ADVANCED_FACE ( 'NONE', ( #319 ), #78, .T. ) ;
#435 = CARTESIAN_POINT ( 'NONE',  ( -3.999999999999996447, 5.000000000000000000, 12.25000000000000000 ) ) ;
#436 = VERTEX_POINT ( 'NONE', #32 ) ;
#437 = ORIENTED_EDGE ( 'NONE', *, *, #386, .F. ) ;
#438 = ORIENTED_EDGE ( 'NONE', *, *, #9, .T. ) ;
#439 = EDGE_CURVE ( 'NONE', #436, #604, #280, .T. ) ;
#440 = CIRCLE ( 'NONE', #581, 11.76709486477061617 ) ;
#441 = SHAPE_DEFINITION_REPRESENTATION ( #599, #170 ) ;
#442 = ORIENTED_EDGE ( 'NONE', *, *, #456, .F. ) ;
#443 = CARTESIAN_POINT ( 'NONE',  ( 0.0000000000000000000, 5.000000000000000000, 0.0000000000000000000 ) ) ;
#444 = AXIS2_PLACEMENT_3D ( 'NONE', #110, #588, #361 ) ;
#445 = ORIENTED_EDGE ( 'NONE', *, *, #106, .F. ) ;
#446 = CARTESIAN_POINT ( 'NONE',  ( -18.99999999999999645, 5.000000000000000000, 12.25000000000000000 ) ) ;
#447 = EDGE_CURVE ( 'NONE', #345, #521, #411, .T. ) ;
#448 = VERTEX_POINT ( 'NONE', #81 ) ;
#449 = DIRECTION ( 'NONE',  ( 0.0000000000000000000, -1.000000000000000000, 0.0000000000000000000 ) ) ;
#450 = VECTOR ( 'NONE', #468, 1000.000000000000000 ) ;
#451 = CIRCLE ( 'NONE', #433, 1.000000000000000888 ) ;
#452 = PLANE ( 'NONE',  #414 ) ;
#453 = DIRECTION ( 'NONE',  ( 1.000000000000000000, 0.0000000000000000000, -0.0000000000000000000 ) ) ;
#454 = ORIENTED_EDGE ( 'NONE', *, *, #194, .F. ) ;
#455 = FACE_OUTER_BOUND ( 'NONE', #298, .T. ) ;
#456 = EDGE_CURVE ( 'NONE', #249, #293, #284, .T. ) ;
#457 = PRODUCT ( 'TransferShim', 'TransferShim', '', ( #211 ) ) ;
#458 = CARTESIAN_POINT ( 'NONE',  ( -17.99999999999999645, 5.000000000000000000, -12.25000000000000000 ) ) ;
#459 = DIRECTION ( 'NONE',  ( 0.0000000000000000000, 1.000000000000000000, 0.0000000000000000000 ) ) ;
#460 = VERTEX_POINT ( 'NONE', #223 ) ;
#461 = CARTESIAN_POINT ( 'NONE',  ( 0.0000000000000000000, 4.249999999999995559, 0.0000000000000000000 ) ) ;
#462 = VERTEX_POINT ( 'NONE', #603 ) ;
#463 = DIRECTION ( 'NONE',  ( 0.0000000000000000000, -1.000000000000000000, 0.0000000000000000000 ) ) ;
#464 = CYLINDRICAL_SURFACE ( 'NONE', #393, 8.300000000000000711 ) ;
#465 = ORIENTED_EDGE ( 'NONE', *, *, #295, .F. ) ;
#466 = ADVANCED_FACE ( 'NONE', ( #231 ), #610, .F. ) ;
#467 = LINE ( 'NONE', #458, #152 ) ;
#468 = DIRECTION ( 'NONE',  ( -1.000000000000000000, -0.0000000000000000000, -0.0000000000000000000 ) ) ;
#469 = DIRECTION ( 'NONE',  ( 0.0000000000000000000, 1.000000000000000000, 0.0000000000000000000 ) ) ;
#470 = FACE_OUTER_BOUND ( 'NONE', #41, .T. ) ;
#471 = PRODUCT_DEFINITION_FORMATION_WITH_SPECIFIED_SOURCE ( 'ANY', '', #457, .NOT_KNOWN. ) ;
#472 = EDGE_LOOP ( 'NONE', ( #278, #270, #385, #8 ) ) ;
#473 = VECTOR ( 'NONE', #279, 1000.000000000000000 ) ;
#474 = APPLICATION_CONTEXT ( 'automotive_design' ) ;
#475 = DIRECTION ( 'NONE',  ( -1.000000000000000000, 0.0000000000000000000, 0.0000000000000000000 ) ) ;
#476 = CARTESIAN_POINT ( 'NONE',  ( 0.0000000000000000000, 4.400000000000000355, 0.0000000000000000000 ) ) ;
#477 = CIRCLE ( 'NONE', #316, 1.000000000000000888 ) ;
#478 = EDGE_LOOP ( 'NONE', ( #198, #348, #518, #327 ) ) ;
#479 = ADVANCED_FACE ( 'NONE', ( #344 ), #243, .T. ) ;
#480 = AXIS2_PLACEMENT_3D ( 'NONE', #522, #90, #475 ) ;
#481 = CARTESIAN_POINT ( 'NONE',  ( 1.441053506140459343E-15, 5.000000000000000000, -11.76709486477061617 ) ) ;
#482 = EDGE_LOOP ( 'NONE', ( #186, #297 ) ) ;
#483 = CARTESIAN_POINT ( 'NONE',  ( -18.99999999999999645, 0.0000000000000000000, -11.25000000000000000 ) ) ;
#484 = ORIENTED_EDGE ( 'NONE', *, *, #4, .F. ) ;
#485 = COLOUR_RGB ( '',0.7921568627450980005, 0.8196078431372548767, 0.9333333333333333481 ) ;
#486 = VERTEX_POINT ( 'NONE', #483 ) ;
#487 = EDGE_CURVE ( 'NONE', #99, #460, #429, .T. ) ;
#488 = APPLICATION_PROTOCOL_DEFINITION ( 'draft international standard', 'automotive_design', 1998, #557 ) ;
#489 = ORIENTED_EDGE ( 'NONE', *, *, #409, .F. ) ;
#490 = ORIENTED_EDGE ( 'NONE', *, *, #369, .T. ) ;
#491 = DIRECTION ( 'NONE',  ( -0.0000000000000000000, -1.000000000000000000, -0.0000000000000000000 ) ) ;
#492 = DIRECTION ( 'NONE',  ( 0.0000000000000000000, 0.0000000000000000000, 1.000000000000000000 ) ) ;
#493 = FACE_OUTER_BOUND ( 'NONE', #527, .T. ) ;
#494 = EDGE_CURVE ( 'NONE', #33, #294, #287, .T. ) ;
#495 = CIRCLE ( 'NONE', #225, 15.00000000000000000 ) ;
#496 = PRODUCT_DEFINITION_CONTEXT ( 'detailed design', #474, 'design' ) ;
#497 = CARTESIAN_POINT ( 'NONE',  ( 0.0000000000000000000, 4.249999999999995559, -8.300000000000000711 ) ) ;
#498 = DIRECTION ( 'NONE',  ( 4.565061778886335400E-17, 0.0000000000000000000, -1.000000000000000000 ) ) ;
#499 = ORIENTED_EDGE ( 'NONE', *, *, #456, .T. ) ;
#500 = FACE_OUTER_BOUND ( 'NONE', #540, .T. ) ;
#501 = AXIS2_PLACEMENT_3D ( 'NONE', #365, #43, #272 ) ;
#502 = AXIS2_PLACEMENT_3D ( 'NONE', #77, #268, #418 ) ;
#503 = DIRECTION ( 'NONE',  ( -0.0000000000000000000, -1.000000000000000000, -0.0000000000000000000 ) ) ;
#504 = DIRECTION ( 'NONE',  ( -0.0000000000000000000, -1.000000000000000000, -0.0000000000000000000 ) ) ;
#505 = CLOSED_SHELL ( 'NONE', ( #541, #479, #155, #594, #242, #561, #60, #300, #253, #37, #331, #404, #126, #434, #380, #238, #310, #584, #28, #466 ) ) ;
#506 = DIRECTION ( 'NONE',  ( 0.0000000000000000000, 0.0000000000000000000, 1.000000000000000000 ) ) ;
#507 = PRODUCT_RELATED_PRODUCT_CATEGORY ( 'part', '', ( #457 ) ) ;
#508 = DIRECTION ( 'NONE',  ( 0.0000000000000000000, 1.000000000000000000, 0.0000000000000000000 ) ) ;
#509 = ORIENTED_EDGE ( 'NONE', *, *, #16, .T. ) ;
#510 = FACE_OUTER_BOUND ( 'NONE', #420, .T. ) ;
#511 = CARTESIAN_POINT ( 'NONE',  ( 1.441053506140459343E-15, 5.000000000000000000, -11.76709486477061617 ) ) ;
#512 = VECTOR ( 'NONE', #29, 1000.000000000000000 ) ;
#513 = CARTESIAN_POINT ( 'NONE',  ( 19.00000000000000355, 5.000000000000000000, -2.749999999999997335 ) ) ;
#514 = SURFACE_SIDE_STYLE ('',( #269 ) ) ;
#515 = EDGE_CURVE ( 'NONE', #486, #448, #233, .T. ) ;
#516 = CARTESIAN_POINT ( 'NONE',  ( 19.00000000000000355, 5.000000000000000000, -12.25000000000000000 ) ) ;
#517 = DIRECTION ( 'NONE',  ( -0.0000000000000000000, -1.000000000000000000, -0.0000000000000000000 ) ) ;
#518 = ORIENTED_EDGE ( 'NONE', *, *, #248, .T. ) ;
#519 = CARTESIAN_POINT ( 'NONE',  ( -18.99999999999999645, 5.000000000000000000, -12.25000000000000000 ) ) ;
#520 = CYLINDRICAL_SURFACE ( 'NONE', #161, 1.000000000000000888 ) ;
#521 = VERTEX_POINT ( 'NONE', #573 ) ;
#522 = CARTESIAN_POINT ( 'NONE',  ( 0.0000000000000000000, 4.400000000000000355, 0.0000000000000000000 ) ) ;
#523 = EDGE_CURVE ( 'NONE', #33, #36, #530, .T. ) ;
#524 = DIRECTION ( 'NONE',  ( 0.0000000000000000000, 0.0000000000000000000, -1.000000000000000000 ) ) ;
#525 = ORIENTED_EDGE ( 'NONE', *, *, #494, .F. ) ;
#526 = DIRECTION ( 'NONE',  ( 0.0000000000000000000, -1.000000000000000000, 0.0000000000000000000 ) ) ;
#527 = EDGE_LOOP ( 'NONE', ( #317, #465, #192, #556 ) ) ;
#528 = AXIS2_PLACEMENT_3D ( 'NONE', #227, #372, #42 ) ;
#529 = ORIENTED_EDGE ( 'NONE', *, *, #16, .F. ) ;
#530 = LINE ( 'NONE', #427, #578 ) ;
#531 = EDGE_LOOP ( 'NONE', ( #383, #442 ) ) ;
#532 = AXIS2_PLACEMENT_3D ( 'NONE', #305, #67, #84 ) ;
#533 = AXIS2_PLACEMENT_3D ( 'NONE', #402, #537, #66 ) ;
#534 = CONICAL_SURFACE ( 'NONE', #193, 8.300000000000000711, 0.7853981633974517207 ) ;
#535 = CARTESIAN_POINT ( 'NONE',  ( -18.99999999999999645, 5.000000000000000000, -2.749999999999999112 ) ) ;
#536 = ORIENTED_EDGE ( 'NONE', *, *, #120, .F. ) ;
#537 = DIRECTION ( 'NONE',  ( 0.0000000000000000000, 0.0000000000000000000, 1.000000000000000000 ) ) ;
#538 = VERTEX_POINT ( 'NONE', #389 ) ;
#539 = FACE_OUTER_BOUND ( 'NONE', #196, .T. ) ;
#540 = EDGE_LOOP ( 'NONE', ( #130, #299, #428, #56 ) ) ;
#541 = ADVANCED_FACE ( 'NONE', ( #92 ), #149, .F. ) ;
#542 = DIRECTION ( 'NONE',  ( 0.0000000000000000000, 0.0000000000000000000, 1.000000000000000000 ) ) ;
#543 = CIRCLE ( 'NONE', #589, 9.050000000000009592 ) ;
#544 = FACE_OUTER_BOUND ( 'NONE', #93, .T. ) ;
#545 = LINE ( 'NONE', #583, #65 ) ;
#546 = CARTESIAN_POINT ( 'NONE',  ( 4.000000000000003553, 5.000000000000000000, 12.25000000000000178 ) ) ;
#547 = FACE_BOUND ( 'NONE', #482, .T. ) ;
#548 = CARTESIAN_POINT ( 'NONE',  ( 0.0000000000000000000, 5.000000000000000000, 10.50000000000000000 ) ) ;
#549 = PLANE ( 'NONE',  #337 ) ;
#550 = VECTOR ( 'NONE', #459, 1000.000000000000000 ) ;
#551 = CARTESIAN_POINT ( 'NONE',  ( 19.00000000000000355, 0.0000000000000000000, -12.25000000000000000 ) ) ;
#552 = CONICAL_SURFACE ( 'NONE', #285, 8.300000000000000711, 0.7853981633974517207 ) ;
#553 = DIRECTION ( 'NONE',  ( 0.0000000000000000000, 0.0000000000000000000, 1.000000000000000000 ) ) ;
#554 = AXIS2_PLACEMENT_3D ( 'NONE', #286, #235, #187 ) ;
#555 = LINE ( 'NONE', #125, #608 ) ;
#556 = ORIENTED_EDGE ( 'NONE', *, *, #190, .F. ) ;
#557 = APPLICATION_CONTEXT ( 'automotive_design' ) ;
#558 = CARTESIAN_POINT ( 'NONE',  ( 1.285879139104720831E-15, 5.000000000000000000, -10.50000000000000000 ) ) ;
#559 = FILL_AREA_STYLE ('',( #323 ) ) ;
#560 = ORIENTED_EDGE ( 'NONE', *, *, #275, .T. ) ;
#561 = ADVANCED_FACE ( 'NONE', ( #341, #470 ), #102, .T. ) ;
#562 = AXIS2_PLACEMENT_3D ( 'NONE', #370, #508, #228 ) ;
#563 = DIRECTION ( 'NONE',  ( 0.0000000000000000000, 0.0000000000000000000, -1.000000000000000000 ) ) ;
#564 = DIRECTION ( 'NONE',  ( 0.0000000000000000000, -1.000000000000000000, 0.0000000000000000000 ) ) ;
#565 = DIRECTION ( 'NONE',  ( 0.0000000000000000000, -1.000000000000000000, 0.0000000000000000000 ) ) ;
#566 =( NAMED_UNIT ( * ) SI_UNIT ( $, .STERADIAN. ) SOLID_ANGLE_UNIT ( ) );
#567 = ORIENTED_EDGE ( 'NONE', *, *, #295, .T. ) ;
#568 = EDGE_CURVE ( 'NONE', #154, #36, #7, .T. ) ;
#569 = CARTESIAN_POINT ( 'NONE',  ( 18.00000000000000355, 5.000000000000000000, -11.25000000000000000 ) ) ;
#570 = CYLINDRICAL_SURFACE ( 'NONE', #119, 8.300000000000000711 ) ;
#571 = DIRECTION ( 'NONE',  ( 0.0000000000000000000, -0.0000000000000000000, 1.000000000000000000 ) ) ;
#572 = VERTEX_POINT ( 'NONE', #51 ) ;
#573 = CARTESIAN_POINT ( 'NONE',  ( -17.99999999999999645, 5.000000000000000000, -12.25000000000000000 ) ) ;
#574 = ORIENTED_EDGE ( 'NONE', *, *, #282, .T. ) ;
#575 = DIRECTION ( 'NONE',  ( 0.0000000000000000000, 0.0000000000000000000, 1.000000000000000000 ) ) ;
#576 = EDGE_LOOP ( 'NONE', ( #21, #445 ) ) ;
#577 = EDGE_CURVE ( 'NONE', #212, #582, #55, .T. ) ;
#578 = VECTOR ( 'NONE', #197, 1000.000000000000000 ) ;
#579 = ORIENTED_EDGE ( 'NONE', *, *, #87, .F. ) ;
#580 = VECTOR ( 'NONE', #565, 1000.000000000000000 ) ;
#581 = AXIS2_PLACEMENT_3D ( 'NONE', #220, #469, #45 ) ;
#582 = VERTEX_POINT ( 'NONE', #333 ) ;
#583 = CARTESIAN_POINT ( 'NONE',  ( 0.0000000000000000000, 5.000000000000000000, 10.50000000000000000 ) ) ;
#584 = ADVANCED_FACE ( 'NONE', ( #335 ), #5, .T. ) ;
#585 = ORIENTED_EDGE ( 'NONE', *, *, #439, .F. ) ;
#586 = DIRECTION ( 'NONE',  ( -0.0000000000000000000, 1.000000000000000000, -0.0000000000000000000 ) ) ;
#587 = CARTESIAN_POINT ( 'NONE',  ( 1.016456843292303031E-15, 4.249999999999995559, -8.300000000000000711 ) ) ;
#588 = DIRECTION ( 'NONE',  ( 0.0000000000000000000, -1.000000000000000000, 0.0000000000000000000 ) ) ;
#589 = AXIS2_PLACEMENT_3D ( 'NONE', #407, #593, #167 ) ;
#590 = ORIENTED_EDGE ( 'NONE', *, *, #257, .T. ) ;
#591 = DIRECTION ( 'NONE',  ( 0.0000000000000000000, 1.000000000000000000, 0.0000000000000000000 ) ) ;
#592 = ORIENTED_EDGE ( 'NONE', *, *, #600, .F. ) ;
#593 = DIRECTION ( 'NONE',  ( -0.0000000000000000000, -1.000000000000000000, -0.0000000000000000000 ) ) ;
#594 = ADVANCED_FACE ( 'NONE', ( #387 ), #570, .F. ) ;
#595 = CARTESIAN_POINT ( 'NONE',  ( 0.0000000000000000000, 5.000000000000000000, 0.0000000000000000000 ) ) ;
#596 = CARTESIAN_POINT ( 'NONE',  ( 0.0000000000000000000, 5.000000000000000000, 0.0000000000000000000 ) ) ;
#597 = PLANE ( 'NONE',  #261 ) ;
#598 = CARTESIAN_POINT ( 'NONE',  ( -18.99999999999999645, 5.000000000000000000, -12.25000000000000000 ) ) ;
#599 = PRODUCT_DEFINITION_SHAPE ( 'NONE', 'NONE',  #289 ) ;
#600 = EDGE_CURVE ( 'NONE', #13, #436, #263, .T. ) ;
#601 = AXIS2_PLACEMENT_3D ( 'NONE', #377, #426, #1 ) ;
#602 = CARTESIAN_POINT ( 'NONE',  ( 0.0000000000000000000, 0.0000000000000000000, 0.0000000000000000000 ) ) ;
#603 = CARTESIAN_POINT ( 'NONE',  ( 1.108305353228355773E-15, 5.000000000000000000, -9.050000000000009592 ) ) ;
#604 = VERTEX_POINT ( 'NONE', #481 ) ;
#605 = FACE_BOUND ( 'NONE', #107, .T. ) ;
#606 = CARTESIAN_POINT ( 'NONE',  ( 18.00000000000000355, 0.0000000000000000000, -11.25000000000000000 ) ) ;
#607 = VECTOR ( 'NONE', #191, 1000.000000000000000 ) ;
#608 = VECTOR ( 'NONE', #178, 1000.000000000000114 ) ;
#609 = CARTESIAN_POINT ( 'NONE',  ( 0.0000000000000000000, 0.0000000000000000000, 0.0000000000000000000 ) ) ;
#610 = CYLINDRICAL_SURFACE ( 'NONE', #181, 11.76709486477061617 ) ;
#611 = ORIENTED_EDGE ( 'NONE', *, *, #523, .F. ) ;
ENDSEC;
END-ISO-10303-21;
